<?xml version="1.0" standalone="no"?>
<!DOCTYPE svg PUBLIC "-//W3C//DTD SVG 20010904//EN"
 "http://www.w3.org/TR/2001/REC-SVG-20010904/DTD/svg10.dtd">
<svg version="1.0" xmlns="http://www.w3.org/2000/svg"
 width="996.000000pt" height="710.000000pt" viewBox="0 0 996.000000 710.000000"
 preserveAspectRatio="xMidYMid meet">

<g transform="translate(0.000000,710.000000) scale(0.100000,-0.100000)"
fill="#000000" stroke="none">
<path d="M4006 7078 c-16 -26 -263 -461 -1703 -2998 -764 -1345 -2246 -3956
-2300 -4053 -2 -4 646 -7 1440 -7 l1444 0 519 914 c285 503 521 913 523 910 3
-2 246 -415 541 -917 l536 -912 537 -3 c336 -1 537 1 537 7 0 6 -365 631 -811
1390 l-811 1381 684 1205 c375 662 685 1205 688 1205 3 0 136 -222 295 -492
159 -271 711 -1213 1228 -2093 517 -880 948 -1615 959 -1633 l20 -32 -453 2
-453 3 -376 640 c-206 352 -450 766 -540 920 l-165 280 -537 3 c-337 1 -538
-1 -538 -7 0 -6 42 -81 94 -168 51 -87 367 -624 701 -1193 334 -569 658 -1119
718 -1222 l110 -188 1534 0 1535 0 -20 33 c-11 17 -372 635 -802 1372 -2545
4357 -3301 5650 -3308 5657 -4 4 -179 -295 -388 -665 -210 -370 -990 -1745
-1734 -3057 -744 -1312 -1358 -2391 -1364 -2398 -9 -9 -93 -12 -378 -10 l-366
3 375 660 c206 363 742 1306 1190 2095 448 789 929 1635 1068 1880 139 245
377 666 530 935 153 270 289 509 302 533 l25 42 -536 0 -536 0 -14 -22z"/>
</g>
</svg>
