<?xml version="1.0" standalone="no"?>
<!DOCTYPE svg PUBLIC "-//W3C//DTD SVG 20010904//EN"
 "http://www.w3.org/TR/2001/REC-SVG-20010904/DTD/svg10.dtd">
<svg version="1.0" xmlns="http://www.w3.org/2000/svg"
 width="2540.000000pt" height="1309.000000pt" viewBox="0 0 2540.000000 1309.000000"
 preserveAspectRatio="xMidYMid meet">

<g transform="translate(0.000000,1309.000000) scale(0.100000,-0.100000)"
fill="#000000" stroke="none">
<path d="M0 6545 l0 -6545 3753 0 3752 1 30 61 c24 50 40 68 79 93 42 25 59
30 116 30 57 0 74 -5 116 -30 39 -25 55 -43 79 -93 l30 -61 8723 -1 8722 0 0
6545 0 6545 -12700 0 -12700 0 0 -6545z m552 6359 c125 -88 113 -269 -22 -342
-95 -50 -215 -11 -268 88 -50 95 -11 215 88 268 63 33 143 28 202 -14z m362
-72 c3 -5 18 -45 35 -90 l30 -82 -24 0 c-15 0 -26 7 -30 20 -4 14 -15 20 -35
20 -20 0 -31 -6 -35 -20 -4 -12 -15 -20 -29 -20 l-23 0 29 81 c15 45 31 85 34
90 7 11 41 12 48 1z m814 -85 l3 -87 -55 0 c-45 0 -58 4 -70 22 -33 46 -7 108
45 108 21 0 29 5 29 18 0 24 10 33 30 30 12 -3 16 -21 18 -91z m21457 -5 c22
-59 18 -95 -5 -52 -6 11 -19 20 -30 20 -11 0 -24 -9 -30 -20 -18 -33 -31 -13
-15 23 7 18 19 47 26 65 6 18 16 31 22 29 5 -1 20 -31 32 -65z m-22105 35 c0
-7 -10 -17 -22 -22 -18 -8 -24 -20 -26 -52 -3 -35 -7 -43 -23 -43 -17 0 -19 7
-19 64 l0 64 45 0 c28 0 45 -4 45 -11z m200 -7 c6 -10 10 -39 10 -64 0 -42 -2
-46 -25 -46 -23 0 -25 3 -25 50 0 38 -4 50 -15 50 -11 0 -15 -12 -15 -50 0
-43 -3 -50 -19 -50 -17 0 -20 8 -23 48 -2 34 -7 47 -18 47 -11 0 -16 -13 -18
-47 -3 -40 -6 -48 -23 -48 -17 0 -19 7 -19 64 l0 64 90 0 c78 0 92 -2 100 -18z
m140 1 c5 -11 10 -40 10 -64 l0 -45 -55 -1 c-43 0 -57 4 -64 18 -14 25 13 61
45 61 13 0 24 5 24 10 0 7 -13 8 -35 4 -19 -3 -35 -2 -35 3 0 36 92 47 110 14z
m148 -48 c3 -58 1 -63 -18 -63 -17 0 -20 6 -20 51 0 43 -3 50 -17 47 -14 -2
-19 -15 -21 -51 -3 -39 -6 -47 -23 -47 -17 0 -19 7 -19 64 l0 65 58 -2 57 -2
3 -62z m296 45 c34 -49 7 -108 -49 -108 -42 0 -65 22 -65 61 0 51 16 69 60 69
29 0 43 -6 54 -22z m21634 10 c20 -20 14 -47 -13 -54 -14 -3 -25 -12 -25 -20
0 -8 -4 -14 -10 -14 -5 0 -10 23 -10 50 0 46 2 50 23 50 13 0 28 -5 35 -12z
m502 -38 c0 -27 -4 -50 -10 -50 -5 0 -10 23 -10 50 0 28 5 50 10 50 6 0 10
-22 10 -50z m78 18 l8 -33 12 33 c12 34 32 36 32 2 0 -10 5 -22 10 -25 6 -3
10 4 10 18 0 26 8 39 20 32 10 -6 -14 -88 -27 -92 -6 -2 -15 9 -21 24 l-10 28
-7 -27 c-13 -48 -30 -32 -49 45 -4 15 -2 27 4 27 5 0 13 -15 18 -32z m262 5
c0 -21 3 -24 12 -15 17 17 33 15 18 -3 -10 -12 -10 -18 0 -30 7 -9 10 -19 6
-23 -4 -4 -14 2 -22 12 -12 17 -14 18 -14 3 0 -9 -4 -17 -10 -17 -5 0 -10 23
-10 50 0 28 5 50 10 50 6 0 10 -12 10 -27z m-752 -25 c3 -14 -3 -18 -23 -18
-16 0 -24 -4 -20 -10 4 -6 16 -8 27 -4 14 4 18 2 14 -5 -11 -17 -53 -13 -60 5
-4 9 -4 25 0 36 7 25 57 21 62 -4z m55 15 c-7 -2 -13 -18 -13 -34 0 -16 -4
-29 -10 -29 -5 0 -10 16 -10 35 0 30 3 35 23 34 12 0 16 -3 10 -6z m73 -4 c4
-8 -1 -9 -17 -4 l-24 6 24 -19 c13 -11 21 -24 17 -31 -9 -14 -56 -15 -56 0 0
6 9 8 20 4 11 -4 20 -2 20 4 0 6 -6 11 -14 11 -18 0 -29 16 -21 30 8 13 42 13
51 -1z m79 -24 c0 -25 -4 -31 -26 -33 -29 -3 -44 18 -33 50 4 14 13 18 32 16
23 -2 27 -8 27 -33z m89 19 c9 -24 7 -54 -3 -54 -5 0 -11 11 -13 25 -4 35 -22
36 -26 3 -5 -40 -22 -34 -22 7 0 32 3 35 29 35 17 0 31 -6 35 -16z m76 -19 c0
-32 -2 -35 -30 -35 -23 0 -30 4 -30 20 0 13 7 20 20 20 11 0 20 5 20 11 0 6
-9 8 -21 4 -15 -5 -19 -4 -15 4 4 6 18 11 32 11 21 0 24 -5 24 -35z m285 0 c0
-27 -3 -30 -30 -30 -21 0 -31 5 -33 18 -6 33 6 49 35 45 24 -3 28 -8 28 -33z
m58 28 c-7 -2 -13 -18 -13 -34 0 -16 -4 -29 -10 -29 -5 0 -10 16 -10 35 0 30
3 35 23 34 12 0 16 -3 10 -6z m147 -3 c0 -5 -7 -7 -15 -4 -8 4 -15 2 -15 -4 0
-5 9 -12 21 -15 12 -3 19 -12 17 -19 -6 -16 -58 -24 -58 -8 0 7 8 9 21 5 15
-5 19 -4 15 4 -4 6 -14 11 -22 11 -8 0 -14 9 -14 20 0 15 7 20 25 20 14 0 25
-4 25 -10z m85 -25 c0 -23 -5 -31 -22 -33 -13 -2 -23 -10 -23 -18 0 -8 -4 -14
-10 -14 -5 0 -10 23 -10 51 l0 50 33 -3 c28 -3 32 -6 32 -33z m83 -3 c3 -32 2
-33 -29 -30 -41 4 -49 25 -15 38 30 11 35 24 6 15 -12 -4 -20 -2 -20 5 0 6 12
10 28 8 23 -2 28 -8 30 -36z m77 28 c4 -6 -4 -9 -17 -7 -17 1 -23 -3 -23 -18
0 -15 6 -19 23 -18 13 2 21 -1 17 -7 -10 -16 -43 -12 -54 7 -19 34 34 76 54
43z m83 -12 c3 -14 -3 -18 -23 -18 -16 0 -24 -4 -20 -10 4 -6 16 -8 27 -4 14
4 18 2 14 -5 -11 -17 -53 -13 -60 5 -4 9 -4 25 0 36 7 25 57 21 62 -4z
m-22756 -786 c23 -22 23 -27 23 -252 0 -225 0 -230 -23 -252 l-23 -23 -854 0
-854 0 -23 23 c-22 22 -23 29 -26 240 -2 234 1 255 48 279 20 10 204 12 867
10 l842 -2 23 -23z m19614 -46 c24 -18 11 -32 -18 -19 -25 11 -48 7 -48 -8 0
-5 17 -17 37 -26 40 -19 52 -45 33 -68 -15 -18 -71 -20 -88 -3 -16 16 -15 28
3 28 8 0 15 -4 15 -10 0 -5 11 -10 25 -10 37 0 31 26 -12 47 -43 20 -52 43
-28 67 20 20 55 21 81 2z m914 -61 l0 -75 -38 0 c-46 0 -62 14 -62 56 0 38 21
58 55 52 21 -4 25 -1 25 18 0 13 5 24 10 24 6 0 10 -32 10 -75z m192 53 c26
-26 9 -37 -23 -14 -32 22 -59 5 -59 -38 0 -19 7 -39 15 -46 15 -12 55 -5 55
11 0 5 7 9 15 9 19 0 19 -9 -2 -32 -9 -10 -30 -18 -46 -18 -43 0 -67 25 -67
72 0 70 65 103 112 56z m776 11 c-2 -6 -8 -10 -13 -10 -5 0 -11 4 -13 10 -2 6
4 11 13 11 9 0 15 -5 13 -11z m120 0 c-2 -6 -8 -10 -13 -10 -5 0 -11 4 -13 10
-2 6 4 11 13 11 9 0 15 -5 13 -11z m-1338 -13 c0 -8 6 -17 13 -20 10 -5 10 -7
0 -12 -15 -7 -18 -74 -3 -74 6 0 10 -5 10 -11 0 -6 -10 -9 -22 -7 -19 2 -24
10 -26 43 -2 22 -9 44 -15 48 -9 6 -9 10 1 14 6 2 12 11 12 19 0 8 7 14 15 14
8 0 15 -6 15 -14z m1284 -8 c13 -14 15 -23 8 -26 -15 -5 -16 -72 -2 -72 6 0
10 -5 10 -11 0 -6 -10 -9 -22 -7 -19 2 -24 10 -26 43 -2 22 -9 44 -15 48 -9 6
-9 10 1 14 6 2 12 11 12 19 0 20 13 17 34 -8z m-16284 -53 l0 -45 45 0 45 0 0
45 c0 41 2 45 25 45 l25 0 0 -110 0 -110 -25 0 c-23 0 -25 4 -25 45 l0 45 -45
0 -45 0 0 -45 c0 -41 -2 -45 -25 -45 l-25 0 0 110 0 110 25 0 c23 0 25 -4 25
-45z m14400 -1 c0 -38 3 -45 18 -42 12 2 18 15 20 46 2 28 8 42 18 42 10 0 14
-14 14 -54 l0 -54 -42 0 c-50 -1 -58 8 -58 66 0 31 4 42 15 42 11 0 15 -12 15
-46z m190 -24 c0 -66 -2 -71 -25 -80 -28 -11 -75 2 -75 20 0 7 13 9 35 4 28
-5 35 -3 35 9 0 10 -6 13 -20 10 -29 -8 -50 14 -50 51 0 42 16 56 62 56 l38 0
0 -70z m120 -2 c0 -64 -2 -69 -25 -78 -16 -6 -34 -6 -51 1 -33 12 -23 24 18
24 17 0 33 5 35 11 2 7 -6 10 -22 7 -34 -7 -55 13 -55 51 0 42 16 56 62 54
l38 -1 0 -69z m106 64 c6 -4 14 -17 18 -29 7 -21 4 -23 -34 -23 -29 0 -40 -4
-37 -12 2 -7 18 -12 36 -11 20 0 31 -3 28 -10 -2 -7 -21 -12 -43 -12 -33 0
-40 4 -48 27 -17 49 38 98 80 70z m122 -11 c3 -10 -3 -11 -27 -6 -20 4 -31 3
-31 -4 0 -6 6 -11 13 -11 7 0 23 -7 35 -16 18 -12 20 -19 12 -35 -13 -24 -75
-27 -84 -4 -5 13 0 15 29 9 43 -8 48 12 6 21 -33 7 -47 31 -30 52 15 17 71 13
77 -6z m189 -11 c12 -24 12 -25 -28 -28 -26 -2 -39 -7 -36 -15 2 -7 18 -11 36
-9 23 2 32 -2 29 -10 -3 -7 -20 -14 -38 -16 -38 -4 -60 16 -60 54 0 54 73 72
97 24z m437 14 c19 -19 21 -54 3 -78 -21 -28 -79 -18 -91 16 -20 56 47 103 88
62z m184 -41 c2 -43 0 -53 -12 -53 -12 0 -16 11 -16 45 0 33 -4 45 -15 45 -11
0 -15 -12 -15 -45 0 -33 -4 -45 -15 -45 -11 0 -15 12 -15 45 0 32 -4 45 -14
45 -17 0 -26 -22 -26 -61 0 -16 -4 -29 -10 -29 -5 0 -10 24 -10 54 l0 53 73
-1 72 -1 3 -52z m174 43 c4 -6 8 -30 8 -53 0 -32 -4 -43 -15 -43 -11 0 -15 12
-15 45 0 33 -4 45 -15 45 -11 0 -15 -12 -15 -45 0 -33 -4 -45 -14 -45 -10 0
-16 14 -18 43 -2 29 -8 42 -18 42 -10 0 -16 -13 -18 -42 -4 -62 -22 -53 -22
10 l0 54 68 0 c40 1 70 -4 74 -11z m60 -28 c2 -30 8 -43 18 -43 10 0 16 13 18
43 2 28 8 42 18 42 10 0 14 -14 14 -55 l0 -55 -38 0 c-21 0 -43 5 -50 12 -18
18 -16 98 2 98 10 0 16 -14 18 -42z m176 30 c18 -18 16 -98 -2 -98 -10 0 -16
14 -18 43 -2 29 -8 42 -18 42 -10 0 -16 -13 -18 -42 -2 -29 -8 -43 -18 -43
-10 0 -14 14 -14 55 l0 55 38 0 c21 0 43 -5 50 -12z m62 -43 c0 -42 -3 -55
-15 -55 -12 0 -15 13 -15 55 0 42 3 55 15 55 12 0 15 -13 15 -55z m120 0 c0
-30 -4 -55 -10 -55 -5 0 -10 25 -10 55 0 30 5 55 10 55 6 0 10 -25 10 -55z
m108 43 c7 -7 12 -20 12 -30 0 -14 -8 -18 -35 -18 -26 0 -35 -4 -35 -16 0 -13
7 -15 37 -9 33 6 35 5 24 -9 -16 -19 -62 -21 -79 -4 -7 7 -12 26 -12 43 0 38
16 55 50 55 14 0 31 -5 38 -12z m113 -4 c12 -15 10 -16 -19 -10 -41 10 -43 -8
-2 -23 38 -13 41 -48 6 -57 -32 -8 -58 -2 -63 13 -3 9 4 11 26 7 40 -8 40 8 1
23 -28 11 -40 39 -23 56 12 13 61 7 74 -9z m-16260 -63 c56 -57 23 -143 -55
-143 -53 0 -81 29 -81 83 0 33 6 46 28 65 38 32 72 30 108 -5z m99 20 c0 -5
13 -4 29 2 25 9 33 8 48 -5 15 -14 20 -14 31 -2 18 20 49 17 72 -6 16 -16 20
-33 20 -85 0 -63 -1 -65 -25 -65 -24 0 -25 3 -25 53 0 55 -13 79 -36 70 -10
-4 -14 -23 -14 -64 0 -56 -1 -59 -25 -59 -24 0 -25 3 -25 59 0 34 -5 63 -12
67 -19 12 -38 -27 -38 -78 0 -45 -2 -48 -25 -48 -25 0 -25 1 -25 78 0 43 3 82
7 85 10 10 43 8 43 -2z m363 -22 c9 -12 17 -32 17 -45 0 -22 -4 -24 -55 -24
-57 0 -67 -8 -39 -31 12 -10 20 -10 35 -1 22 14 59 16 59 4 0 -18 -39 -43 -67
-44 -70 -2 -104 41 -87 110 15 62 95 80 137 31z m13778 -420 l24 -20 -23 11
c-13 7 -26 9 -29 6 -4 -3 -13 0 -21 7 -13 9 -14 9 -8 0 4 -7 3 -13 -3 -13 -5
0 -12 -14 -16 -30 -4 -17 -11 -28 -16 -24 -5 3 -8 0 -7 -8 2 -7 -3 -12 -10
-10 -7 1 -18 -9 -24 -23 -6 -14 -14 -25 -17 -25 -4 0 -8 -12 -9 -27 -1 -14 1
-24 4 -21 3 4 21 0 40 -8 22 -9 48 -12 70 -8 29 5 34 3 34 -12 -1 -34 -34 -82
-77 -113 -24 -17 -43 -36 -43 -41 0 -17 -28 -11 -33 8 -3 9 -5 2 -6 -16 -1
-24 2 -31 12 -25 6 4 17 8 22 8 18 1 91 43 106 61 9 11 9 15 2 10 -19 -11 -16
-1 4 15 11 10 14 10 9 2 -8 -15 -5 -16 18 -7 9 3 16 12 16 20 0 8 6 14 13 14
6 1 29 23 49 49 41 53 88 74 88 39 0 -11 -7 -26 -15 -35 -8 -8 -12 -20 -8 -26
4 -7 -5 -4 -20 6 -25 16 -32 15 -28 -6 1 -5 -4 -5 -10 -1 -9 5 -10 2 -6 -10 4
-9 3 -15 -2 -12 -5 3 -11 -1 -15 -9 -3 -8 -12 -12 -21 -9 -17 7 -19 0 -5 -25
7 -14 5 -22 -8 -33 -21 -19 -55 -31 -47 -18 9 15 -2 12 -30 -6 -14 -9 -25 -23
-25 -31 0 -8 -4 -12 -9 -9 -5 4 -11 0 -14 -6 -4 -10 -7 -11 -18 0 -18 16 -32
15 -26 -2 7 -17 -21 -11 -38 8 -5 6 -17 11 -25 11 -8 0 -17 11 -21 25 -10 34
-11 102 -1 97 4 -3 6 16 4 41 -4 52 28 122 83 184 63 70 97 82 136 47z m27
-50 c1 -9 -6 -15 -18 -16 -22 -2 -23 -1 -14 22 8 19 28 15 32 -6z m3134 -7
c21 -21 23 -31 23 -142 0 -178 30 -165 -365 -165 -391 0 -364 -11 -368 153 -3
117 6 148 48 169 19 10 98 13 332 11 305 -3 308 -3 330 -26z m-2785 6 c5 -7 9
-33 8 -58 l0 -45 -42 -3 -43 -3 0 60 0 61 34 0 c18 0 38 -6 43 -12z m53 2 c0
-5 -7 -10 -15 -10 -8 0 -15 5 -15 10 0 6 7 10 15 10 8 0 15 -4 15 -10z m160
-50 l0 -60 -35 0 c-28 0 -38 5 -46 24 -14 29 3 66 30 66 11 0 21 7 25 15 13
34 26 12 26 -45z m88 7 c3 -38 7 -47 22 -47 10 0 22 -4 25 -10 4 -6 -10 -10
-34 -10 l-41 0 0 61 c0 74 23 79 28 6z m422 28 c0 -14 -4 -25 -10 -25 -5 0
-10 11 -10 25 0 14 5 25 10 25 6 0 10 -11 10 -25z m-1151 -19 c10 -12 8 -13
-8 -9 -12 3 -18 9 -15 14 7 12 10 11 23 -5z m481 -31 c0 -33 -4 -45 -15 -45
-11 0 -15 12 -15 45 0 33 4 45 15 45 11 0 15 -12 15 -45z m70 36 c0 -5 -7 -11
-15 -15 -9 -3 -15 -18 -15 -36 0 -16 -4 -30 -10 -30 -5 0 -10 20 -10 45 0 41
2 45 25 45 14 0 25 -4 25 -9z m313 -12 c5 -9 7 -28 3 -42 -5 -22 -12 -27 -36
-27 -38 0 -59 35 -40 69 13 26 57 26 73 0z m44 1 c6 -23 23 -27 23 -6 0 16 18
31 26 23 3 -3 0 -23 -7 -46 -16 -54 -42 -55 -57 -2 -15 47 -15 51 -1 51 6 0
13 -9 16 -20z m129 12 c6 -4 14 -14 17 -22 4 -10 6 -8 6 8 1 18 7 22 31 22 32
0 40 -14 15 -24 -9 -3 -15 -18 -15 -36 0 -20 -5 -30 -15 -30 -8 0 -15 9 -15
20 0 16 -7 20 -30 20 -16 0 -30 -5 -30 -11 0 -7 10 -9 26 -5 19 5 25 3 22 -6
-6 -18 -59 -23 -69 -6 -29 45 15 98 57 70z m192 -11 c3 -9 -2 -11 -17 -6 -30
9 -26 -4 5 -15 38 -15 28 -45 -15 -45 -19 0 -36 6 -39 13 -3 9 4 11 25 7 l28
-6 -27 16 c-27 15 -35 34 -21 49 12 11 56 2 61 -13z m-1086 -51 c-4 -41 -20
-51 -41 -26 -15 18 -6 39 22 52 12 7 22 12 22 13 0 0 -1 -17 -3 -39z m-21376
-245 c47 -19 70 -72 54 -121 -10 -29 -9 -38 4 -53 21 -23 8 -36 -15 -15 -15
13 -23 14 -51 4 -27 -10 -40 -10 -71 4 -79 33 -84 140 -7 178 42 22 42 22 86
3z m318 -41 c28 -11 17 -24 -14 -17 -39 7 -40 -12 -1 -32 38 -19 46 -32 31
-50 -14 -17 -66 -20 -75 -4 -10 16 3 23 18 10 15 -12 47 -5 47 10 0 5 -16 15
-35 23 -36 15 -44 33 -23 54 13 13 28 15 52 6z m386 -13 c0 -15 5 -18 21 -14
12 4 25 0 30 -8 12 -19 11 -79 -1 -79 -5 0 -10 16 -10 36 0 28 -3 35 -17 32
-12 -2 -19 -14 -21 -36 -6 -56 -22 -35 -22 28 0 33 4 60 10 60 6 0 10 -9 10
-19z m-282 -23 c22 -22 13 -38 -19 -38 -20 0 -29 -4 -26 -12 2 -7 16 -12 31
-10 18 2 25 -1 21 -7 -8 -15 -48 -14 -63 1 -26 26 -7 78 28 78 9 0 21 -5 28
-12z m90 0 c7 -7 12 -27 12 -46 0 -32 -1 -33 -37 -30 -30 2 -38 7 -38 23 0 12
8 21 20 23 11 2 25 9 30 14 7 7 1 9 -17 6 -27 -5 -35 1 -21 15 10 11 38 8 51
-5z m72 2 c0 -4 -7 -10 -15 -14 -9 -3 -15 -18 -15 -36 0 -16 -4 -30 -10 -30
-5 0 -10 20 -10 44 0 40 2 44 25 44 14 0 25 -4 25 -8z m80 -5 c11 -13 8 -14
-19 -9 -28 6 -31 4 -31 -19 0 -31 16 -43 36 -26 16 13 30 6 19 -10 -8 -15 -48
-14 -63 1 -7 7 -12 21 -12 33 0 41 45 60 70 30z m6609 -25 c41 -21 96 -80 104
-112 4 -15 2 -18 -11 -12 -42 19 -112 16 -154 -6 -31 -16 -50 -20 -77 -15 -20
4 -66 7 -103 6 -38 -1 -68 1 -68 4 0 23 33 76 65 104 28 24 44 32 63 28 14 -3
39 1 56 9 44 19 81 17 125 -6z m375 -78 c19 -54 15 -81 -8 -49 -16 21 -45 22
-52 2 -4 -8 -12 -15 -20 -15 -10 0 -8 14 9 60 26 75 45 75 71 2z m516 -3 l0
-60 -42 3 c-39 3 -43 6 -46 31 -4 33 13 57 39 57 11 0 19 7 19 15 0 8 7 15 15
15 12 0 15 -13 15 -61z m80 47 c0 -8 10 -16 21 -18 29 -4 43 -29 35 -61 -6
-24 -11 -27 -46 -27 l-40 0 0 60 c0 47 3 60 15 60 8 0 15 -6 15 -14z m100 4
c0 -5 -7 -10 -15 -10 -8 0 -15 5 -15 10 0 6 7 10 15 10 8 0 15 -4 15 -10z
m238 -50 c16 -46 18 -60 7 -60 -7 0 -15 7 -19 15 -3 8 -14 15 -25 15 -10 0
-21 -7 -25 -15 -3 -8 -11 -15 -17 -15 -12 0 -6 33 16 87 21 50 40 41 63 -27z
m52 41 c0 -14 6 -17 24 -14 18 4 27 -1 37 -18 l12 -23 8 22 c6 15 17 22 34 22
16 0 25 6 25 15 0 8 5 15 10 15 6 0 10 -27 10 -60 l0 -60 -35 0 c-28 0 -37 5
-44 22 l-8 22 -12 -22 c-9 -16 -21 -22 -46 -22 l-35 0 0 60 c0 33 4 60 10 60
6 0 10 -8 10 -19z m300 -41 c0 -33 -4 -60 -10 -60 -6 0 -10 27 -10 60 0 33 4
60 10 60 6 0 10 -27 10 -60z m40 0 c0 -33 -4 -60 -10 -60 -6 0 -10 27 -10 60
0 33 4 60 10 60 6 0 10 -27 10 -60z m140 45 c0 -8 9 -15 20 -15 23 0 40 -28
40 -64 0 -39 -28 -33 -32 6 -4 46 -28 49 -28 4 0 -25 -4 -36 -15 -36 -12 0
-15 13 -15 60 0 47 3 60 15 60 8 0 15 -7 15 -15z m-1380 -24 c0 -5 -7 -11 -15
-15 -9 -3 -15 -18 -15 -36 0 -20 -5 -30 -15 -30 -11 0 -15 12 -15 45 0 43 1
45 30 45 17 0 30 -4 30 -9z m128 -4 c18 -12 16 -77 -3 -77 -11 0 -15 11 -15
36 0 45 -24 42 -28 -4 -4 -42 -20 -41 -24 1 -2 17 -7 32 -13 32 -5 0 -11 -15
-13 -32 -5 -49 -22 -40 -22 11 l0 43 53 -1 c28 0 58 -5 65 -9z m90 1 c7 -7 12
-27 12 -46 0 -32 -1 -33 -37 -30 -30 2 -38 7 -38 23 0 13 8 21 23 23 12 2 22
8 22 13 0 5 -12 6 -27 3 -25 -7 -27 -6 -14 9 16 20 42 22 59 5z m100 0 c18
-18 16 -78 -3 -78 -10 0 -15 11 -15 35 0 24 -5 35 -15 35 -10 0 -15 -11 -15
-35 0 -24 -5 -35 -15 -35 -11 0 -15 12 -15 45 0 44 1 45 33 45 18 0 38 -5 45
-12z m292 -33 c0 -33 -4 -45 -15 -45 -11 0 -15 12 -15 45 0 33 4 45 15 45 11
0 15 -12 15 -45z m88 33 c18 -18 16 -78 -3 -78 -10 0 -15 11 -15 35 0 24 -5
35 -15 35 -10 0 -15 -11 -15 -35 0 -24 -5 -35 -15 -35 -11 0 -15 12 -15 45 0
44 1 45 33 45 18 0 38 -5 45 -12z m410 -26 c4 -43 22 -41 22 3 0 24 5 35 15
35 11 0 15 -12 15 -46 l0 -45 -37 3 c-37 3 -38 4 -41 47 -2 32 0 42 10 39 7
-3 14 -19 16 -36z m222 19 c5 -11 10 -31 10 -45 0 -23 -4 -26 -39 -26 -38 0
-53 12 -44 38 3 6 13 12 23 12 10 0 22 5 26 11 5 9 -1 10 -20 5 -14 -3 -26 -3
-26 2 0 28 55 30 70 3z m-1753 -85 c4 -7 25 -19 46 -25 43 -14 47 -34 19 -91
-14 -29 -25 -37 -61 -44 -38 -8 -46 -7 -57 10 -32 45 -57 64 -75 59 -13 -4
-19 -1 -19 8 0 9 -5 17 -12 19 -20 7 0 41 21 35 12 -3 28 4 42 19 25 27 83 33
96 10z m-244 -12 c45 -8 47 -23 5 -47 -21 -12 -28 -21 -21 -28 7 -7 17 -7 31
2 24 15 27 13 36 -18 5 -14 3 -23 -3 -23 -13 0 -14 -10 -2 -29 7 -11 13 -10
33 3 14 9 33 14 42 10 9 -3 16 -2 16 4 0 6 -6 12 -12 15 -7 2 -10 8 -6 12 11
11 28 -4 28 -25 0 -11 -9 -24 -20 -30 -32 -17 -23 -30 23 -31 23 -1 53 -4 67
-8 l25 -7 -31 -17 c-143 -75 -324 34 -324 196 0 25 3 27 38 27 20 0 54 -3 75
-6z m1407 -154 c0 -5 -6 -10 -12 -10 -10 0 -9 -3 1 -9 9 -6 10 -11 2 -15 -6
-4 -11 -20 -11 -37 0 -16 -4 -29 -9 -29 -13 0 -20 72 -9 93 9 18 38 24 38 7z
m-890 -9 c0 -5 9 -11 20 -14 16 -4 20 -13 18 -44 -1 -36 -1 -37 -5 -5 -6 42
-33 44 -33 2 0 -16 -4 -30 -10 -30 -5 0 -10 23 -10 50 0 28 5 50 10 50 6 0 10
-4 10 -9z m160 -41 c0 -27 -4 -50 -10 -50 -5 0 -10 23 -10 50 0 28 5 50 10 50
6 0 10 -22 10 -50z m27 -27 c-2 -16 -4 -3 -4 27 0 30 2 43 4 28 2 -16 2 -40 0
-55z m376 24 c-4 -19 -1 -32 8 -39 11 -7 10 -8 -6 -6 -23 4 -40 65 -23 86 16
19 28 -5 21 -41z m47 44 c0 -5 9 -11 20 -14 16 -4 20 -13 18 -44 -1 -36 -1
-37 -5 -5 -6 42 -33 44 -33 2 0 -16 -4 -30 -10 -30 -5 0 -10 23 -10 50 0 28 5
50 10 50 6 0 10 -4 10 -9z m479 -28 c7 10 18 17 24 17 6 0 4 -7 -5 -16 -15
-15 -15 -19 -1 -40 10 -16 11 -24 4 -24 -6 0 -14 7 -17 15 -8 20 -21 19 -27
-2 -3 -10 -5 7 -5 37 0 39 2 47 7 26 5 -26 7 -28 20 -13z m-971 5 c20 -20 14
-38 -13 -38 -14 0 -25 -5 -25 -11 0 -7 10 -9 28 -4 20 5 24 4 16 -5 -19 -19
-59 -8 -62 18 -6 41 30 66 56 40z m152 -3 c7 -9 10 -25 6 -41 -5 -20 -12 -25
-34 -22 -28 3 -40 32 -28 64 7 18 40 18 56 -1z m162 1 c11 -16 10 -66 -2 -66
-5 0 -10 14 -10 30 0 43 -29 41 -32 -2 l-1 -33 -4 33 c-6 42 -33 44 -33 2 0
-16 -4 -30 -10 -30 -5 0 -10 18 -10 40 l0 40 48 -2 c26 -1 50 -7 54 -12z m76
5 c8 -5 12 -21 10 -37 -2 -23 -9 -30 -30 -32 -22 -3 -29 2 -34 22 -10 41 21
68 54 47z m220 -3 c20 -20 14 -38 -13 -38 -14 0 -25 -5 -25 -11 0 -7 10 -9 28
-4 20 5 24 4 16 -5 -19 -19 -59 -8 -62 18 -6 41 30 66 56 40z m60 -2 c-10 -7
-18 -25 -18 -40 0 -14 -4 -26 -10 -26 -5 0 -10 18 -10 40 0 37 2 40 28 40 24
-1 25 -2 10 -14z m140 -54 c8 -2 12 7 12 27 0 16 5 33 10 36 6 4 10 -10 10
-34 0 -39 -2 -41 -30 -41 -29 0 -30 2 -29 43 2 42 2 42 8 8 3 -19 12 -36 19
-39z m109 52 c2 -7 -6 -10 -22 -6 -24 4 -26 2 -23 -19 2 -18 9 -23 26 -22 13
2 21 -1 17 -7 -11 -17 -44 -11 -55 10 -15 28 4 62 32 58 12 -2 23 -8 25 -14z
m151 4 c22 -22 13 -38 -19 -38 -19 0 -28 -4 -23 -11 3 -6 15 -9 25 -6 11 3 19
1 19 -5 0 -5 -12 -8 -27 -6 -29 3 -41 32 -29 64 7 17 38 18 54 2z m62 2 c0 -5
-4 -10 -10 -10 -5 0 -10 -13 -10 -30 0 -16 -4 -30 -10 -30 -5 0 -10 18 -10 40
0 33 3 40 20 40 11 0 20 -4 20 -10z m65 0 c3 -6 -4 -10 -17 -11 l-23 0 23 -11
c13 -6 21 -18 20 -27 -4 -20 -36 -27 -52 -11 -8 9 -6 11 12 5 12 -3 22 -2 22
4 0 5 -9 13 -20 16 -20 6 -26 25 -13 38 10 10 41 8 48 -3z m12195 -25 c0 -16
-6 -25 -15 -25 -12 0 -15 -13 -15 -60 0 -55 -2 -61 -25 -70 -19 -7 -26 -19
-31 -50 -8 -50 -20 -51 -27 -3 -12 72 25 169 80 213 32 25 33 25 33 -5z m255
4 c11 -17 -1 -21 -15 -4 -8 9 -8 15 -2 15 6 0 14 -5 17 -11z m51 -36 c-7 -7
-26 7 -26 19 0 6 6 6 15 -2 9 -7 13 -15 11 -17z m3046 -1 c21 -21 23 -31 23
-142 0 -178 30 -165 -365 -165 -391 0 -364 -11 -368 153 -3 117 6 148 48 169
19 10 98 13 332 11 305 -3 308 -3 330 -26z m-2772 8 c0 -5 -7 -10 -15 -10 -11
0 -15 -12 -15 -50 0 -38 -4 -50 -15 -50 -11 0 -15 12 -15 50 0 44 -3 50 -21
50 -11 0 -17 5 -14 10 3 6 26 10 51 10 24 0 44 -4 44 -10z m40 -5 c0 -8 8 -15
18 -15 27 0 42 -20 42 -57 0 -23 -5 -33 -15 -33 -10 0 -15 11 -15 35 0 24 -5
35 -15 35 -10 0 -15 -11 -15 -35 0 -24 -5 -35 -15 -35 -12 0 -15 13 -15 60 0
47 3 60 15 60 8 0 15 -7 15 -15z m-370 -36 c0 -6 -4 -7 -10 -4 -5 3 -10 11
-10 16 0 6 5 7 10 4 6 -3 10 -11 10 -16z m506 13 c6 -4 13 -15 17 -24 5 -15 1
-18 -23 -18 -17 0 -30 -5 -30 -11 0 -7 10 -9 26 -5 19 5 25 3 22 -6 -6 -18
-59 -23 -69 -6 -29 44 15 99 57 70z m101 -24 l10 -33 7 33 c4 17 14 32 22 32
18 0 18 2 -7 -64 -16 -40 -27 -56 -40 -56 -21 0 -26 16 -7 22 8 3 7 16 -5 46
-20 51 -21 52 -3 52 7 0 17 -15 23 -32z m136 11 c5 -9 7 -28 3 -42 -5 -22 -12
-27 -36 -27 -38 0 -59 35 -40 69 13 26 57 26 73 0z m77 12 c0 -5 -7 -11 -15
-15 -9 -3 -15 -18 -15 -36 0 -20 -5 -30 -15 -30 -11 0 -15 12 -15 45 0 43 1
45 30 45 17 0 30 -4 30 -9z m32 -23 c4 -46 28 -49 28 -4 0 25 4 36 15 36 11 0
15 -12 15 -46 l0 -45 -37 3 c-37 3 -38 4 -41 46 -4 48 15 58 20 10z m198 -23
c0 -43 -4 -56 -19 -65 -26 -13 -34 -13 -57 6 -18 15 -18 15 9 11 15 -2 30 0
33 4 3 5 -3 9 -13 9 -25 0 -43 19 -43 45 0 30 19 45 57 45 l33 0 0 -55z m74
49 c11 -4 16 -19 16 -46 l0 -39 -37 3 c-30 2 -38 7 -38 23 0 13 8 21 23 23 12
2 22 8 22 13 0 5 -12 6 -27 3 -25 -7 -27 -6 -14 9 14 18 29 21 55 11z m104 -6
c18 -15 16 -78 -3 -78 -11 0 -15 11 -15 36 0 45 -24 42 -28 -4 -5 -48 -22 -38
-22 12 0 41 2 44 28 44 15 0 33 -5 40 -10z m112 -43 c0 -43 -4 -56 -19 -65
-26 -13 -34 -13 -57 6 -18 15 -18 15 9 11 15 -2 30 0 33 4 3 5 -3 9 -13 9 -25
0 -43 19 -43 45 0 30 19 45 57 45 l33 0 0 -55z m-1373 23 c-3 -8 -6 -5 -6 6
-1 11 2 17 5 13 3 -3 4 -12 1 -19z m50 0 c-3 -8 -6 -5 -6 6 -1 11 2 17 5 13 3
-3 4 -12 1 -19z m83 -45 c0 -7 -7 -10 -15 -7 -10 4 -15 19 -14 43 l1 36 13
-30 c8 -16 14 -35 15 -42z m-231 -75 c20 -12 37 -25 39 -30 2 -4 15 -2 28 4
20 10 27 9 35 -3 5 -8 6 -20 4 -28 -5 -11 -3 -12 10 -1 8 7 13 16 10 20 -2 3
3 16 11 28 19 27 81 31 91 6 9 -24 -13 -85 -47 -126 -37 -45 -47 -47 -62 -13
-9 20 -14 22 -25 13 -11 -9 -12 -7 -4 15 8 21 7 26 -10 30 -15 4 -19 2 -15 -9
3 -8 -1 -14 -8 -14 -8 0 -20 -2 -28 -5 -12 -5 -38 36 -38 60 0 7 -9 20 -20 30
-19 17 -20 17 -20 0 0 -10 -2 -16 -5 -13 -7 7 5 58 12 58 3 0 22 -10 42 -22z
m-21244 -129 c6 0 23 3 38 7 21 5 34 1 53 -16 44 -42 25 -106 -46 -155 l-42
-29 -37 21 c-43 25 -81 76 -81 111 0 40 39 75 75 68 16 -4 35 -6 40 -7z m361
-92 c12 -31 18 -57 13 -57 -5 0 -12 7 -15 15 -4 8 -16 15 -29 15 -13 0 -25 -7
-29 -15 -3 -8 -10 -15 -15 -15 -5 0 0 27 12 60 12 33 26 59 32 57 5 -2 19 -29
31 -60z m204 53 c0 -5 -7 -10 -15 -10 -8 0 -15 5 -15 10 0 6 7 10 15 10 8 0
15 -4 15 -10z m120 0 c0 -5 -4 -10 -10 -10 -5 0 -10 5 -10 10 0 6 5 10 10 10
6 0 10 -4 10 -10z m-172 -17 c12 -12 13 -18 4 -21 -15 -5 -16 -44 0 -60 9 -9
8 -12 -5 -12 -10 0 -19 11 -23 28 -3 15 -7 33 -10 40 -4 13 5 42 13 42 2 0 12
-8 21 -17z m227 -48 c0 -30 -4 -45 -12 -45 -8 0 -13 14 -13 34 0 19 -4 38 -10
41 -6 4 -5 11 3 20 18 20 31 1 32 -50z m-277 27 c3 -9 -3 -11 -22 -6 -32 8
-47 -20 -23 -43 14 -14 18 -14 33 -2 15 12 17 12 12 -1 -2 -8 -16 -16 -31 -18
-34 -4 -51 26 -37 63 8 21 16 26 37 23 14 -2 28 -9 31 -16z m92 -27 c0 -25 -4
-45 -10 -45 -5 0 -10 20 -10 45 0 25 5 45 10 45 6 0 10 -20 10 -45z m47 13
l10 -33 13 33 c6 17 16 32 22 32 6 0 7 -8 3 -17 -4 -10 -12 -30 -17 -45 -5
-16 -14 -28 -19 -28 -8 0 -39 63 -39 81 0 22 18 6 27 -23z m83 -13 c0 -25 -4
-45 -10 -45 -5 0 -10 20 -10 45 0 25 5 45 10 45 6 0 10 -20 10 -45z m102 13
l12 -33 13 33 c7 17 17 32 23 32 5 0 0 -23 -11 -52 -26 -67 -27 -68 -47 -67
-11 0 -12 3 -4 6 16 6 15 36 -2 78 -9 20 -11 35 -5 35 6 0 15 -15 21 -32z
m6427 -264 c26 -19 51 -71 51 -109 0 -28 -7 -30 -33 -11 -22 17 -53 10 -71
-16 -13 -18 -18 -19 -51 -8 -20 7 -47 9 -61 6 -22 -6 -24 -4 -24 29 0 62 43
124 77 110 17 -6 17 -7 -1 -21 -11 -8 -15 -14 -10 -14 6 0 20 11 32 25 25 29
58 32 91 9z m42 -184 c6 0 9 -22 7 -52 -3 -46 -7 -54 -31 -68 -26 -14 -29 -14
-41 3 -14 18 -42 24 -31 7 4 -6 1 -18 -6 -26 -18 -22 0 -31 61 -33 l24 -1 -22
-22 c-17 -18 -34 -23 -72 -23 -43 0 -54 5 -82 33 -32 31 -33 36 -36 122 -2 50
0 90 5 90 21 0 83 -22 83 -29 0 -4 -9 -16 -20 -26 -11 -10 -20 -23 -20 -29 0
-6 5 -5 12 2 7 7 15 12 19 12 12 0 17 -37 7 -54 -15 -27 2 -40 23 -17 18 19
18 23 5 56 -17 39 -12 67 10 58 8 -3 14 1 14 10 0 9 8 20 18 26 13 8 22 4 40
-15 13 -13 27 -24 33 -24z m-7256 -250 c-3 -5 -21 -10 -39 -10 -38 0 -56 -15
-56 -47 0 -17 6 -23 23 -23 13 0 34 -11 47 -25 16 -17 30 -23 42 -19 11 3 30
-2 43 -10 24 -16 25 -16 25 8 0 14 5 28 10 31 14 9 13 -51 -1 -78 -17 -32 -28
-37 -89 -37 -74 0 -96 7 -109 36 -25 56 -8 168 28 177 33 9 82 7 76 -3z m88
-31 c20 0 21 -1 3 -8 -11 -4 -23 -16 -27 -27 -7 -17 -8 -17 -8 4 -1 16 -7 22
-23 23 l-23 0 23 9 c12 5 23 17 23 27 1 13 3 11 6 -4 3 -15 12 -23 26 -24z
m283 -23 c24 -18 13 -31 -14 -15 -28 18 -52 5 -52 -29 0 -26 15 -52 31 -52 4
0 15 7 24 16 20 20 33 11 15 -11 -15 -18 -61 -20 -78 -3 -17 17 -15 74 4 92
19 20 44 20 70 2z m554 4 c0 -5 -7 -10 -15 -10 -11 0 -15 -12 -15 -50 0 -27
-4 -50 -10 -50 -5 0 -10 23 -10 50 0 43 -3 50 -20 50 -11 0 -20 5 -20 10 0 6
20 10 45 10 25 0 45 -4 45 -10z m60 -25 c22 0 25 -5 28 -42 2 -26 -1 -43 -7
-43 -6 0 -11 16 -11 36 0 28 -3 35 -17 32 -12 -2 -19 -14 -21 -36 -5 -52 -22
-36 -22 21 0 55 11 83 20 50 3 -11 14 -18 30 -18z m370 -26 l0 -60 -37 3 c-33
3 -38 7 -41 31 -4 33 13 57 39 57 11 0 19 7 19 15 0 8 5 15 10 15 6 0 10 -27
10 -61z m-682 34 c12 -12 13 -18 4 -21 -15 -5 -16 -44 0 -60 9 -9 8 -12 -5
-12 -10 0 -19 11 -23 28 -3 15 -7 33 -10 40 -4 13 5 42 13 42 2 0 12 -8 21
-17z m-218 -13 c0 -5 -7 -10 -15 -10 -10 0 -15 -11 -15 -35 0 -19 -4 -35 -10
-35 -5 0 -10 20 -10 45 0 41 2 45 25 45 14 0 25 -4 25 -10z m68 -2 c22 -22 13
-38 -19 -38 -20 0 -29 -4 -26 -12 2 -7 16 -12 31 -10 18 2 25 -1 21 -7 -8 -15
-48 -14 -63 1 -26 26 -7 78 28 78 9 0 21 -5 28 -12z m100 -35 c3 -43 3 -43
-31 -43 -34 0 -48 13 -40 38 3 6 16 12 29 12 13 0 24 5 24 11 0 7 -10 9 -25 5
-14 -4 -25 -3 -25 2 0 16 14 23 40 20 22 -3 25 -8 28 -45z m136 41 c9 -3 16
-15 16 -25 0 -15 -7 -19 -31 -19 -20 0 -29 -4 -26 -12 2 -7 16 -12 31 -11 14
1 24 -2 21 -8 -9 -13 -49 -11 -63 3 -15 15 -15 51 0 66 13 13 28 15 52 6z
m326 -4 c0 -5 -7 -10 -15 -10 -10 0 -15 -11 -15 -35 0 -19 -4 -35 -10 -35 -5
0 -10 20 -10 45 0 41 2 45 25 45 14 0 25 -4 25 -10z m64 4 c9 -3 16 -15 16
-25 0 -15 -7 -19 -31 -19 -20 0 -29 -4 -26 -12 2 -7 16 -12 31 -11 14 1 24 -2
21 -8 -9 -13 -49 -11 -63 3 -24 24 -8 78 24 78 7 0 19 -3 28 -6z m104 -41 l3
-43 -36 0 c-32 0 -36 3 -33 23 2 14 11 23 26 25 12 2 22 8 22 14 0 6 -10 8
-25 4 -14 -4 -25 -3 -25 2 0 16 14 23 40 20 22 -3 25 -8 28 -45z m-1230 -689
c27 -19 28 -35 3 -65 -19 -23 -21 -23 -49 -8 -18 10 -34 13 -39 8 -5 -5 -17
-3 -29 5 -15 12 -17 18 -8 33 6 10 20 19 30 21 18 3 18 2 2 -11 -22 -17 -23
-37 -3 -37 8 0 15 6 15 13 0 18 29 57 43 57 7 0 23 -7 35 -16z m66 -27 c8 -13
6 -21 -6 -34 -10 -9 -21 -13 -25 -9 -5 5 -2 11 5 13 14 5 16 33 2 33 -5 0 -10
5 -10 11 0 15 21 6 34 -14z m282 -21 c24 -18 13 -31 -14 -15 -28 18 -52 5 -52
-29 0 -26 15 -52 31 -52 4 0 15 7 24 16 20 20 33 11 15 -11 -15 -18 -61 -20
-78 -3 -17 17 -15 74 4 92 19 20 44 20 70 2z m614 4 c0 -5 -4 -10 -10 -10 -5
0 -10 5 -10 10 0 6 5 10 10 10 6 0 10 -4 10 -10z m90 0 c0 -5 -4 -10 -10 -10
-5 0 -10 5 -10 10 0 6 5 10 10 10 6 0 10 -4 10 -10z m-42 -17 c12 -12 13 -18
4 -21 -16 -5 -16 -44 1 -61 10 -10 8 -12 -8 -9 -14 2 -21 14 -26 43 -6 37 -3
65 8 65 2 0 12 -8 21 -17z m-556 -29 c15 -33 1 -58 -35 -62 -33 -4 -51 26 -37
62 13 36 56 36 72 0z m136 -21 c2 -26 -1 -43 -7 -43 -6 0 -11 16 -11 35 0 24
-5 35 -15 35 -10 0 -15 -11 -15 -35 0 -19 -4 -35 -10 -35 -5 0 -10 16 -10 35
0 24 -5 35 -15 35 -10 0 -15 -11 -15 -35 0 -19 -4 -35 -10 -35 -5 0 -10 20
-10 44 l0 43 58 -1 57 -1 3 -42z m140 0 c2 -26 -1 -43 -7 -43 -6 0 -11 16 -11
35 0 24 -5 35 -15 35 -10 0 -15 -11 -15 -35 0 -19 -4 -35 -10 -35 -5 0 -10 16
-10 35 0 24 -5 35 -15 35 -10 0 -15 -11 -15 -35 0 -19 -4 -35 -10 -35 -5 0
-10 20 -10 45 l0 45 58 -2 57 -3 3 -42z m44 10 c2 -21 8 -38 13 -38 6 0 11 17
13 38 5 53 22 46 22 -9 0 -45 0 -45 -32 -42 -31 3 -33 6 -36 46 -2 23 1 42 7
42 5 0 11 -17 13 -37z m136 25 c14 -12 16 -78 2 -78 -5 0 -10 16 -10 36 0 28
-3 35 -17 32 -12 -2 -19 -14 -21 -36 -5 -48 -22 -39 -22 12 0 41 2 44 28 44
15 0 33 -5 40 -10z m52 -33 c0 -25 -4 -45 -10 -45 -5 0 -10 20 -10 45 0 25 5
45 10 45 6 0 10 -20 10 -45z m90 0 c0 -25 -4 -45 -10 -45 -5 0 -10 20 -10 45
0 25 5 45 10 45 6 0 10 -20 10 -45z m88 33 c22 -22 13 -38 -19 -38 -20 0 -29
-4 -26 -12 2 -7 14 -12 26 -11 11 2 21 -2 21 -8 0 -6 -14 -9 -32 -7 -28 2 -34
8 -36 31 -6 47 36 75 66 45z m89 -4 c2 -7 -6 -10 -22 -7 -33 7 -32 -5 1 -17
29 -11 30 -43 1 -48 -26 -5 -50 6 -42 19 5 8 10 8 18 0 14 -14 27 -14 27 -1 0
6 -8 14 -17 17 -26 9 -34 25 -21 41 13 15 50 12 55 -4z m-1223 -25 c68 -31 18
-102 -59 -83 -48 12 -55 66 -11 84 29 12 41 12 70 -1z m-119 -19 c-16 -18 -16
-20 -1 -26 9 -3 14 -10 11 -15 -7 -11 -32 -1 -39 16 -6 15 18 45 36 45 6 0 3
-9 -7 -20z m205 -10 c0 -12 -29 -40 -42 -40 -6 0 -3 9 6 19 11 12 14 21 7 26
-20 12 -12 26 9 15 11 -6 20 -15 20 -20z m7576 -65 c11 -17 14 -35 9 -64 -6
-39 -7 -39 -43 -34 -50 8 -62 19 -62 59 0 62 64 88 96 39z m54 15 c0 -5 -7
-10 -15 -10 -8 0 -15 5 -15 10 0 6 7 10 15 10 8 0 15 -4 15 -10z m40 -50 c0
-47 -3 -60 -15 -60 -12 0 -15 13 -15 60 0 47 3 60 15 60 12 0 15 -13 15 -60z
m-40 -15 c0 -33 -4 -45 -15 -45 -11 0 -15 12 -15 45 0 33 4 45 15 45 11 0 15
-12 15 -45z m-640 19 c0 -8 -4 -12 -10 -9 -5 3 -10 10 -10 16 0 5 5 9 10 9 6
0 10 -7 10 -16z m-45 -54 c3 -5 1 -10 -4 -10 -6 0 -11 5 -11 10 0 6 2 10 4 10
3 0 8 -4 11 -10z m212 -116 l25 -26 -28 4 c-21 2 -30 9 -32 26 -4 29 3 28 35
-4z m388 -104 c0 -18 -6 -26 -22 -28 -15 -2 -23 -10 -23 -23 0 -10 -4 -19 -10
-19 -5 0 -10 23 -10 51 l0 50 33 -3 c27 -2 32 -7 32 -28z m482 -47 c-2 -16 -4
-3 -4 27 0 30 2 43 4 28 2 -16 2 -40 0 -55z m376 24 c-4 -19 -1 -32 8 -39 11
-7 10 -8 -6 -6 -23 4 -40 65 -23 86 16 19 28 -5 21 -41z m-1386 11 c-3 -8 -6
-5 -6 6 -1 11 2 17 5 13 3 -3 4 -12 1 -19z m613 3 c15 -29 13 -31 -21 -31 -18
0 -28 -4 -24 -10 4 -6 15 -8 26 -5 11 4 19 2 19 -4 0 -6 -11 -11 -25 -11 -31
0 -50 32 -35 60 14 25 46 26 60 1z m60 9 c0 -5 -4 -10 -10 -10 -5 0 -10 -13
-10 -30 0 -16 -4 -30 -10 -30 -5 0 -10 18 -10 40 0 33 3 40 20 40 11 0 20 -4
20 -10z m65 0 c4 -6 -6 -10 -22 -10 l-28 -1 28 -15 c16 -8 26 -21 24 -27 -5
-16 -57 -22 -57 -7 0 7 8 9 20 5 11 -4 20 -2 20 4 0 6 -6 11 -14 11 -19 0 -29
17 -22 35 6 17 42 20 51 5z m73 1 c8 -5 12 -21 10 -37 -2 -23 -9 -30 -30 -32
-22 -3 -29 2 -34 22 -10 41 21 68 54 47z m89 -36 c1 -35 1 -36 -5 -10 -4 17
-14 30 -22 30 -8 0 -18 -13 -21 -30 -6 -28 -7 -27 -8 11 -1 39 1 41 27 40 24
-1 27 -5 29 -41z m81 3 c3 -36 2 -38 -27 -38 -38 0 -43 31 -8 48 l22 11 -23 0
c-14 1 -20 5 -17 12 4 5 17 9 28 7 17 -2 23 -11 25 -40z m156 26 c9 -25 7 -64
-4 -64 -5 0 -10 14 -10 30 0 20 -5 30 -15 30 -10 0 -15 -10 -15 -30 0 -16 -4
-30 -10 -30 -5 0 -10 18 -10 40 0 37 2 40 29 40 17 0 31 -6 35 -16z m120 0 c9
-25 7 -64 -4 -64 -5 0 -10 14 -10 30 0 20 -5 30 -15 30 -10 0 -15 -10 -15 -30
0 -16 -4 -30 -10 -30 -5 0 -10 18 -10 40 0 37 2 40 29 40 17 0 31 -6 35 -16z
m74 7 c8 -5 12 -21 10 -37 -2 -23 -9 -30 -30 -32 -22 -3 -29 2 -34 22 -10 41
21 68 54 47z m140 -18 l10 -28 12 30 c7 17 14 25 17 18 6 -17 -33 -103 -48
-103 -8 0 -9 3 0 14 8 10 7 24 -4 55 -8 22 -10 41 -5 41 4 0 13 -12 18 -27z
m112 13 c6 -8 10 -25 8 -38 -2 -18 -9 -23 -33 -23 -24 0 -31 5 -33 23 -4 25
13 52 33 52 7 0 18 -7 25 -14z m70 4 c0 -4 -6 -10 -14 -13 -8 -3 -16 -18 -19
-34 -3 -22 -4 -19 -6 12 -1 34 2 41 19 42 11 1 20 -2 20 -7z m30 -26 c0 -46
23 -41 31 7 6 33 6 33 8 -9 1 -42 0 -43 -26 -40 -24 3 -28 8 -31 41 -2 21 1
37 7 37 6 0 11 -16 11 -36z m-8789 -273 c21 -17 22 -22 11 -45 -16 -35 -37
-42 -67 -22 -29 19 -31 33 -9 64 19 27 35 28 65 3z m333 -47 c19 -18 19 -20 6
-45 -6 -11 -21 -19 -35 -19 -18 0 -25 -5 -25 -20 0 -11 -4 -20 -10 -20 -6 0
-10 27 -10 60 0 60 0 60 29 60 16 0 37 -7 45 -16z m216 6 c-13 -9 -13 -11 0
-21 11 -8 12 -12 3 -16 -7 -2 -13 -20 -13 -39 0 -49 -17 -42 -22 9 -6 49 5 77
30 77 15 0 15 -2 2 -10z m40 0 c0 -5 -4 -10 -10 -10 -5 0 -10 5 -10 10 0 6 5
10 10 10 6 0 10 -4 10 -10z m40 -50 c0 -33 -4 -60 -10 -60 -6 0 -10 27 -10 60
0 33 4 60 10 60 6 0 10 -27 10 -60z m-220 21 c0 -5 -7 -11 -15 -15 -9 -3 -15
-18 -15 -36 0 -16 -4 -30 -10 -30 -5 0 -10 20 -10 45 0 41 2 45 25 45 14 0 25
-4 25 -9z m82 -17 c15 -33 1 -58 -35 -62 -33 -4 -51 26 -37 62 13 36 56 36 72
0z m98 -19 c0 -25 -4 -45 -10 -45 -5 0 -10 20 -10 45 0 25 5 45 10 45 6 0 10
-20 10 -45z m130 26 c15 -29 13 -31 -26 -31 -32 0 -35 -2 -24 -15 8 -10 21
-13 33 -9 13 4 17 2 13 -5 -4 -6 -18 -11 -31 -11 -32 0 -48 30 -35 64 12 32
54 36 70 7z m-677 -42 c23 -29 21 -46 -8 -65 -31 -20 -119 -15 -143 9 -13 13
-13 21 -4 42 7 14 22 30 34 35 34 14 100 3 121 -21z m7623 -1174 c11 -17 14
-35 9 -64 -6 -39 -7 -39 -43 -34 -50 8 -62 19 -62 59 0 62 64 88 96 39z m54
15 c0 -5 -7 -10 -15 -10 -8 0 -15 5 -15 10 0 6 7 10 15 10 8 0 15 -4 15 -10z
m40 -50 c0 -47 -3 -60 -15 -60 -12 0 -15 13 -15 60 0 47 3 60 15 60 12 0 15
-13 15 -60z m-40 -15 c0 -33 -4 -45 -15 -45 -11 0 -15 12 -15 45 0 33 4 45 15
45 11 0 15 -12 15 -45z m-640 19 c0 -8 -4 -12 -10 -9 -5 3 -10 10 -10 16 0 5
5 9 10 9 6 0 10 -7 10 -16z m-45 -54 c3 -5 1 -10 -4 -10 -6 0 -11 5 -11 10 0
6 2 10 4 10 3 0 8 -4 11 -10z m212 -116 l25 -26 -28 4 c-21 2 -30 9 -32 26 -4
29 3 28 35 -4z m1508 -74 c3 -5 1 -10 -4 -10 -6 0 -11 5 -11 10 0 6 2 10 4 10
3 0 8 -4 11 -10z m-1135 -20 c6 11 16 20 22 20 6 0 4 -10 -6 -25 -9 -13 -16
-36 -16 -50 0 -14 -4 -25 -10 -25 -5 0 -10 10 -10 23 0 12 -7 31 -15 41 -22
29 -18 45 5 18 19 -23 19 -23 30 -2z m185 -40 c0 -23 -5 -40 -11 -40 -13 0
-24 66 -16 88 9 25 26 -7 27 -48z m60 39 c16 -3 20 -13 21 -44 1 -34 1 -35 -3
-7 -6 42 -35 40 -44 -3 -5 -23 -7 -17 -8 25 0 30 3 50 7 44 4 -7 16 -13 27
-15z m215 1 c6 11 16 20 22 20 6 0 4 -10 -6 -25 -9 -13 -16 -36 -16 -50 0 -14
-4 -25 -10 -25 -5 0 -10 10 -10 23 0 12 -7 31 -15 41 -22 29 -18 45 5 18 19
-23 19 -23 30 -2z m820 11 c0 -5 10 -11 23 -13 18 -2 23 -10 25 -40 2 -22 -1
-38 -7 -38 -6 0 -11 14 -11 30 0 20 -5 30 -15 30 -10 0 -15 -10 -15 -30 0 -16
-4 -30 -10 -30 -5 0 -10 23 -10 50 0 28 5 50 10 50 6 0 10 -4 10 -9z m-1793
-33 c-3 -8 -6 -5 -6 6 -1 11 2 17 5 13 3 -3 4 -12 1 -19z m603 8 c6 -8 10 -25
8 -38 -2 -18 -9 -23 -33 -23 -24 0 -31 5 -33 23 -4 25 13 52 33 52 7 0 18 -7
25 -14z m258 2 c22 -22 13 -38 -19 -38 -19 0 -28 -4 -23 -11 3 -6 15 -9 25 -6
11 3 19 1 19 -5 0 -5 -12 -8 -27 -6 -29 3 -41 32 -29 64 7 17 38 18 54 2z
m202 -2 c6 -8 10 -25 8 -38 -2 -18 -9 -23 -33 -23 -24 0 -31 5 -33 23 -4 25
13 52 33 52 7 0 18 -7 25 -14z m70 4 c0 -4 -6 -10 -14 -13 -8 -3 -16 -18 -19
-34 -3 -22 -4 -19 -6 12 -1 34 2 41 19 42 11 1 20 -2 20 -7z m38 -58 c8 -2 12
7 12 27 0 16 5 33 10 36 6 4 10 -10 10 -34 0 -39 -2 -41 -30 -41 -29 0 -30 2
-29 43 2 42 2 42 8 8 3 -19 12 -36 19 -39z m160 16 c-3 -47 -6 -53 -27 -56
-13 -2 -28 2 -35 9 -8 9 -7 10 7 5 11 -3 24 -3 30 1 7 4 2 9 -13 13 -16 4 -26
14 -28 29 -6 37 5 51 38 51 l31 0 -3 -52z m70 40 c7 -7 12 -25 12 -41 0 -26
-3 -28 -32 -25 -43 4 -49 32 -11 47 20 8 21 10 6 7 -22 -4 -30 4 -16 17 10 11
28 8 41 -5z m86 -4 c9 -25 7 -64 -4 -64 -5 0 -10 14 -10 30 0 20 -5 30 -15 30
-10 0 -15 -10 -15 -30 0 -16 -4 -30 -10 -30 -5 0 -10 18 -10 40 0 37 2 40 29
40 17 0 31 -6 35 -16z m84 -39 c-3 -44 -6 -50 -27 -53 -13 -2 -28 2 -35 8 -8
10 -5 11 16 6 15 -3 30 -2 33 4 3 5 -2 10 -12 10 -37 0 -56 43 -31 68 6 6 22
11 35 10 22 -2 24 -6 21 -53z m82 15 c0 -22 -4 -40 -10 -40 -5 0 -10 18 -10
40 0 22 5 40 10 40 6 0 10 -18 10 -40z m65 30 c3 -6 -4 -10 -17 -11 l-23 0 23
-11 c13 -6 21 -18 20 -27 -4 -20 -36 -27 -52 -11 -8 9 -6 11 12 5 12 -3 22 -2
22 4 0 5 -9 13 -20 16 -20 6 -26 25 -13 38 10 10 41 8 48 -3z m203 -2 c22 -22
13 -38 -19 -38 -19 0 -28 -4 -23 -11 3 -6 15 -9 25 -6 11 3 19 1 19 -5 0 -5
-12 -8 -27 -6 -29 3 -41 32 -29 64 7 17 38 18 54 2z m62 2 c0 -5 -4 -10 -10
-10 -5 0 -10 -13 -10 -30 0 -16 -4 -30 -10 -30 -5 0 -10 18 -10 40 0 33 3 40
20 40 11 0 20 -4 20 -10z m68 -2 c22 -22 13 -38 -19 -38 -19 0 -28 -4 -23 -11
3 -6 15 -9 25 -6 11 3 19 1 19 -5 0 -5 -12 -8 -27 -6 -29 3 -41 32 -29 64 7
17 38 18 54 2z m11928 -492 c24 -18 11 -32 -18 -19 -25 11 -48 7 -48 -8 0 -5
17 -17 37 -26 40 -19 52 -45 33 -68 -15 -18 -71 -20 -88 -3 -16 16 -15 28 3
28 8 0 15 -4 15 -10 0 -5 11 -10 25 -10 37 0 31 26 -12 47 -43 20 -52 43 -28
67 20 20 55 21 81 2z m62 3 c-2 -6 -8 -10 -13 -10 -5 0 -11 4 -13 10 -2 6 4
11 13 11 9 0 15 -5 13 -11z m230 -1 c-6 -18 -28 -21 -28 -4 0 9 7 16 16 16 9
0 14 -5 12 -12z m42 -63 c0 -43 -4 -75 -10 -75 -6 0 -10 32 -10 75 0 43 4 75
10 75 6 0 10 -32 10 -75z m322 25 c11 -27 24 -50 27 -50 4 0 15 23 25 51 13
36 23 49 35 47 23 -5 30 -148 6 -148 -11 0 -15 12 -16 48 l0 47 -18 -45 c-24
-59 -42 -61 -63 -8 l-17 43 0 -42 c-1 -31 -5 -43 -16 -43 -12 0 -15 15 -15 75
0 93 20 102 52 25z m156 39 c-2 -6 -8 -10 -13 -10 -5 0 -11 4 -13 10 -2 6 4
11 13 11 9 0 15 -5 13 -11z m242 -64 l0 -75 -38 0 c-46 0 -62 14 -62 55 0 36
15 55 46 55 13 0 24 8 27 20 3 11 10 20 16 20 7 0 11 -27 11 -75z m-990 -20
c0 -42 -3 -55 -15 -55 -12 0 -15 13 -15 55 0 42 3 55 15 55 12 0 15 -13 15
-55z m171 28 c14 -38 11 -83 -5 -83 -10 0 -16 14 -18 43 -2 29 -8 42 -18 42
-10 0 -16 -13 -18 -42 -2 -29 -8 -43 -18 -43 -10 0 -14 12 -14 45 0 33 -4 45
-15 45 -11 0 -15 -12 -15 -45 0 -33 -4 -45 -15 -45 -12 0 -15 13 -15 55 l0 54
71 0 c65 -1 71 -3 80 -26z m49 -28 c0 -30 -4 -55 -10 -55 -5 0 -10 25 -10 55
0 30 5 55 10 55 6 0 10 -25 10 -55z m158 43 c7 -7 12 -31 12 -55 l0 -43 -44 0
c-36 0 -46 4 -51 20 -8 27 0 37 35 45 17 4 30 11 30 17 0 5 -12 7 -30 3 -28
-6 -39 3 -23 18 11 11 58 8 71 -5z m102 3 c0 -5 -9 -11 -20 -14 -16 -4 -20
-14 -20 -46 0 -30 -4 -41 -15 -41 -12 0 -15 13 -15 55 l0 55 35 0 c19 0 35 -4
35 -9z m270 -46 c0 -42 -3 -55 -15 -55 -12 0 -15 13 -15 55 0 42 3 55 15 55
12 0 15 -13 15 -55z m108 43 c18 -18 16 -98 -2 -98 -10 0 -16 14 -18 43 -2 29
-8 42 -18 42 -10 0 -16 -13 -18 -42 -2 -29 -8 -43 -18 -43 -10 0 -14 14 -14
55 l0 55 38 0 c21 0 43 -5 50 -12z m240 -7 c3 -10 -3 -11 -27 -6 -20 4 -31 3
-31 -4 0 -6 6 -11 13 -11 7 0 23 -7 35 -16 18 -12 20 -19 12 -35 -13 -24 -75
-27 -84 -4 -5 13 0 15 29 9 43 -8 48 12 6 21 -33 7 -47 31 -30 52 15 17 71 13
77 -6z m-12238 -298 c-11 -17 -11 -17 -6 0 3 10 6 24 7 30 0 9 2 9 5 0 3 -7 0
-20 -6 -30z m97 -12 c22 8 24 7 21 -13 -5 -37 -67 -21 -68 17 0 5 5 4 11 -2 8
-8 20 -8 36 -2z m11223 -165 c122 -60 161 -222 83 -340 l-26 -40 -13 26 c-7
14 -21 28 -31 31 -10 3 -32 10 -50 15 l-31 10 13 -44 c7 -24 9 -44 5 -44 -4 0
-12 16 -17 36 -11 47 -28 39 -27 -13 l0 -43 -27 50 c-14 27 -36 60 -47 74 -17
22 -21 24 -32 11 -7 -8 -18 -15 -25 -15 -8 0 -28 -12 -45 -27 -31 -25 -33 -26
-46 -9 -7 10 -18 40 -23 67 -27 123 46 242 167 275 58 16 113 10 172 -20z
m3122 -64 c21 -21 23 -31 23 -142 0 -178 30 -165 -365 -165 -391 0 -364 -11
-368 153 -3 117 6 148 48 169 19 10 98 13 332 11 305 -3 308 -3 330 -26z
m-2778 -40 c19 -54 15 -81 -8 -49 -16 21 -45 22 -52 2 -4 -8 -12 -15 -20 -15
-10 0 -8 14 9 60 26 75 45 75 71 2z m516 -3 l0 -60 -42 3 c-39 3 -43 6 -46 31
-4 33 13 57 39 57 11 0 19 7 19 15 0 8 7 15 15 15 12 0 15 -13 15 -61z m138 1
c16 -46 18 -60 7 -60 -7 0 -15 7 -19 15 -3 8 -14 15 -25 15 -10 0 -21 -7 -25
-15 -3 -8 -11 -15 -17 -15 -12 0 -6 33 16 87 21 50 40 41 63 -27z m292 50 c0
-5 -7 -10 -15 -10 -8 0 -15 5 -15 10 0 6 7 10 15 10 8 0 15 -4 15 -10z m-860
-29 c0 -5 -7 -11 -15 -15 -9 -3 -15 -18 -15 -36 0 -20 -5 -30 -15 -30 -11 0
-15 12 -15 45 0 43 1 45 30 45 17 0 30 -4 30 -9z m128 -4 c18 -12 16 -77 -3
-77 -10 0 -15 11 -15 35 0 19 -4 35 -10 35 -5 0 -10 -16 -10 -35 0 -24 -5 -35
-15 -35 -10 0 -15 11 -15 35 0 19 -4 35 -10 35 -5 0 -10 -16 -10 -35 0 -24 -5
-35 -15 -35 -11 0 -15 12 -15 44 l0 43 53 -1 c28 0 58 -5 65 -9z m90 1 c7 -7
12 -27 12 -46 0 -32 -1 -33 -37 -30 -30 2 -38 7 -38 23 0 13 8 21 23 23 12 2
22 8 22 13 0 5 -12 6 -27 3 -25 -7 -27 -6 -14 9 16 20 42 22 59 5z m100 0 c18
-18 16 -78 -3 -78 -10 0 -15 11 -15 35 0 24 -5 35 -15 35 -10 0 -15 -11 -15
-35 0 -24 -5 -35 -15 -35 -11 0 -15 12 -15 45 0 44 1 45 33 45 18 0 38 -5 45
-12z m352 0 c0 -6 -10 -22 -22 -35 l-21 -23 21 0 c12 0 22 -4 22 -10 0 -5 -16
-10 -35 -10 -41 0 -44 14 -13 47 l21 23 -21 0 c-12 0 -22 5 -22 10 0 6 16 10
35 10 20 0 35 -5 35 -12z m138 -1 c18 -12 16 -77 -3 -77 -11 0 -15 11 -15 36
0 45 -24 42 -28 -4 -4 -42 -20 -41 -24 1 -2 17 -7 32 -13 32 -5 0 -11 -15 -13
-32 -5 -49 -22 -40 -22 11 l0 43 53 -1 c28 0 58 -5 65 -9z m52 -32 c0 -33 -4
-45 -15 -45 -11 0 -15 12 -15 45 0 33 4 45 15 45 11 0 15 -12 15 -45z m88 33
c18 -18 16 -78 -3 -78 -10 0 -15 11 -15 35 0 24 -5 35 -15 35 -10 0 -15 -11
-15 -35 0 -24 -5 -35 -15 -35 -11 0 -15 12 -15 45 0 44 1 45 33 45 18 0 38 -5
45 -12z m-15042 -853 c11 -17 14 -35 9 -64 -6 -39 -7 -39 -43 -34 -50 8 -62
19 -62 59 0 62 64 88 96 39z m54 15 c0 -5 -7 -10 -15 -10 -8 0 -15 5 -15 10 0
6 7 10 15 10 8 0 15 -4 15 -10z m40 -50 c0 -47 -3 -60 -15 -60 -12 0 -15 13
-15 60 0 47 3 60 15 60 12 0 15 -13 15 -60z m16692 32 c21 -21 23 -31 23 -142
0 -178 30 -165 -365 -165 -391 0 -364 -11 -368 153 -3 117 6 148 48 169 19 10
98 13 332 11 305 -3 308 -3 330 -26z m-2778 -4 c14 -23 -3 -52 -33 -56 -13 -2
-21 -11 -21 -23 0 -10 -7 -19 -15 -19 -12 0 -15 13 -15 61 l0 60 36 -3 c22 -2
42 -10 48 -20z m136 -38 c0 -33 -4 -60 -10 -60 -6 0 -10 27 -10 60 0 33 4 60
10 60 6 0 10 -27 10 -60z m200 45 c0 -8 8 -15 18 -15 27 0 42 -20 42 -57 0
-23 -5 -33 -15 -33 -10 0 -15 11 -15 35 0 24 -5 35 -15 35 -10 0 -15 -11 -15
-35 0 -24 -5 -35 -15 -35 -12 0 -15 13 -15 60 0 47 3 60 15 60 8 0 15 -7 15
-15z m220 5 c0 -5 -6 -10 -12 -10 -9 0 -8 -4 2 -11 11 -8 12 -12 3 -16 -7 -2
-13 -20 -13 -39 0 -22 -5 -34 -14 -34 -17 0 -27 76 -14 103 9 18 48 24 48 7z
m290 -4 c0 -8 10 -16 21 -18 29 -4 43 -29 35 -61 -6 -24 -11 -27 -46 -27 l-40
0 0 60 c0 47 3 60 15 60 8 0 15 -6 15 -14z m190 -46 c0 -47 -3 -60 -15 -60
-12 0 -15 13 -15 60 0 47 3 60 15 60 12 0 15 -13 15 -60z m40 0 c0 -33 -4 -60
-10 -60 -6 0 -10 27 -10 60 0 33 4 60 10 60 6 0 10 -27 10 -60z m151 9 c3 -24
7 -38 7 -31 1 6 11 12 21 12 11 0 23 5 27 11 5 9 -1 10 -20 5 -21 -5 -27 -3
-24 6 3 7 15 15 28 16 29 5 50 -21 50 -60 0 -26 -3 -28 -40 -28 -25 0 -40 5
-41 13 0 10 -2 10 -6 0 -2 -7 -11 -13 -19 -13 -11 0 -14 15 -14 61 0 73 21 78
31 8z m-943 24 c12 -12 13 -18 4 -21 -14 -4 -16 -52 -2 -52 6 0 10 -4 10 -10
0 -5 -9 -10 -20 -10 -16 0 -20 7 -20 34 0 19 -5 36 -12 38 -9 3 -8 9 2 21 19
20 18 20 38 0z m510 0 c12 -12 13 -18 4 -21 -14 -4 -16 -52 -2 -52 6 0 10 -4
10 -10 0 -5 -9 -10 -20 -10 -13 0 -22 9 -26 28 -3 15 -7 33 -10 40 -5 16 6 42
18 42 5 0 17 -8 26 -17z m-14748 -38 c0 -33 -4 -45 -15 -45 -11 0 -15 12 -15
45 0 33 4 45 15 45 11 0 15 -12 15 -45z m-640 19 c0 -8 -4 -12 -10 -9 -5 3
-10 10 -10 16 0 5 5 9 10 9 6 0 10 -7 10 -16z m14676 8 c6 -4 13 -15 17 -24 5
-15 1 -18 -23 -18 -17 0 -30 -5 -30 -11 0 -7 10 -9 26 -5 19 5 25 3 22 -6 -6
-18 -59 -23 -69 -6 -29 44 15 99 57 70z m142 -4 c21 -21 13 -38 -18 -38 -16 0
-30 -5 -30 -11 0 -7 11 -8 31 -4 24 5 30 4 27 -6 -3 -8 -19 -15 -36 -17 -26
-3 -34 2 -43 21 -22 48 33 91 69 55z m248 4 c6 -4 13 -15 17 -24 5 -15 1 -18
-23 -18 -17 0 -30 -5 -30 -11 0 -7 10 -9 26 -5 19 5 25 3 22 -6 -6 -18 -59
-23 -69 -6 -29 44 15 99 57 70z m166 -18 c14 -31 1 -57 -31 -62 -28 -4 -51 14
-51 42 0 50 62 65 82 20z m92 10 c19 -18 20 -28 6 -55 -13 -24 -65 -26 -74 -3
-22 57 27 99 68 58z m254 4 c7 -7 12 -27 12 -46 0 -32 -1 -33 -37 -30 -30 2
-38 7 -38 23 0 13 8 21 23 23 12 2 22 8 22 13 0 5 -12 6 -27 3 -25 -7 -27 -6
-14 9 16 20 42 22 59 5z m193 -10 c15 -28 -3 -68 -31 -68 -11 0 -20 -7 -20
-15 0 -8 -7 -15 -15 -15 -12 0 -15 13 -15 58 l0 59 35 1 c26 1 37 -4 46 -20z
m177 -5 l10 -28 7 28 c4 15 14 27 22 27 10 0 12 -6 7 -22 -25 -80 -32 -93 -52
-96 -23 -4 -31 13 -10 20 8 3 7 17 -5 51 -13 38 -13 47 -2 47 7 0 18 -12 23
-27z m130 15 c21 -21 13 -38 -18 -38 -16 0 -30 -5 -30 -11 0 -7 11 -8 31 -4
24 5 30 4 27 -6 -3 -8 -19 -15 -36 -17 -26 -3 -34 2 -43 21 -22 48 33 91 69
55z m82 3 c0 -5 -7 -11 -15 -15 -9 -3 -15 -18 -15 -36 0 -20 -5 -30 -15 -30
-11 0 -15 12 -15 45 0 43 1 45 30 45 17 0 30 -4 30 -9z m-1955 -36 c37 -36 35
-97 -5 -137 -27 -26 -36 -30 -68 -25 -116 19 -107 187 10 187 28 0 46 -7 63
-25z m-14250 -25 c3 -5 1 -10 -4 -10 -6 0 -11 5 -11 10 0 6 2 10 4 10 3 0 8
-4 11 -10z m212 -116 l25 -26 -28 4 c-21 2 -30 9 -32 26 -4 29 3 28 35 -4z
m14070 -55 c55 -27 71 -53 48 -79 -22 -24 -98 -50 -145 -50 -47 0 -123 26
-145 50 -23 25 -7 52 47 79 57 28 137 28 195 0z m-13322 -19 c3 -5 1 -10 -4
-10 -6 0 -11 5 -11 10 0 6 2 10 4 10 3 0 8 -4 11 -10z m350 0 c3 -5 1 -10 -4
-10 -6 0 -11 5 -11 10 0 6 2 10 4 10 3 0 8 -4 11 -10z m425 0 c0 -5 -6 -10
-12 -10 -9 0 -8 -4 2 -11 11 -8 12 -12 3 -16 -7 -2 -14 -19 -14 -36 -1 -30 -2
-30 -9 8 -8 40 2 75 20 75 6 0 10 -4 10 -10z m136 -17 c-2 -16 -4 -40 -5 -55
0 -16 -5 -28 -10 -28 -13 0 -20 72 -9 93 13 26 27 20 24 -10z m464 17 c0 -5
-4 -10 -10 -10 -5 0 -10 5 -10 10 0 6 5 10 10 10 6 0 10 -4 10 -10z m-1780
-20 c0 -30 47 -28 53 3 2 12 4 -3 4 -33 0 -30 -2 -45 -4 -32 -6 30 -53 32 -53
2 0 -11 -4 -20 -10 -20 -5 0 -10 23 -10 50 0 28 5 50 10 50 6 0 10 -9 10 -20z
m300 -30 c0 -27 -4 -50 -10 -50 -5 0 -10 23 -10 50 0 28 5 50 10 50 6 0 10
-22 10 -50z m70 0 c0 -27 -4 -50 -10 -50 -5 0 -10 23 -10 50 0 28 5 50 10 50
6 0 10 -22 10 -50z m70 23 c0 -25 0 -26 20 -8 21 19 28 7 8 -13 -9 -9 -7 -16
7 -32 22 -24 9 -27 -17 -3 -17 15 -18 15 -18 0 0 -10 -4 -17 -10 -17 -5 0 -10
23 -10 50 0 28 5 50 10 50 6 0 10 -12 10 -27z m785 -33 c0 -23 -5 -40 -11 -40
-13 0 -24 66 -16 88 9 25 26 -7 27 -48z m423 28 c10 -33 11 -32 27 17 8 26 23
16 32 -22 l10 -38 8 38 c4 20 12 37 17 37 6 0 8 -10 4 -22 -4 -13 -9 -35 -12
-50 -8 -37 -21 -35 -37 5 l-14 32 -7 -33 c-10 -44 -27 -36 -42 21 -13 52 0 66
14 15z m302 -18 c0 -49 -1 -50 -30 -50 -37 0 -56 30 -39 61 7 14 17 19 30 16
12 -3 19 0 19 9 0 8 5 14 10 14 6 0 10 -22 10 -50z m-2433 8 c-3 -8 -6 -5 -6
6 -1 11 2 17 5 13 3 -3 4 -12 1 -19z m621 10 c20 -20 14 -38 -13 -38 -14 0
-25 -5 -25 -11 0 -7 10 -9 28 -4 20 5 24 4 16 -5 -19 -19 -59 -8 -62 18 -6 41
30 66 56 40z m43 -15 l11 -28 10 28 c5 15 14 27 19 27 12 0 12 3 -10 -55 -12
-32 -26 -51 -37 -53 -15 -2 -16 -1 -5 7 12 8 13 16 3 49 -13 44 -14 52 -7 52
3 0 10 -12 16 -27z m229 -13 c0 -22 -4 -40 -10 -40 -5 0 -10 18 -10 40 0 22 5
40 10 40 6 0 10 -18 10 -40z m134 34 c9 -3 16 -15 16 -25 0 -14 -7 -19 -26
-19 -15 0 -23 -4 -19 -10 4 -6 16 -8 27 -4 14 4 18 2 14 -5 -4 -6 -18 -11 -31
-11 -29 0 -45 41 -25 65 14 17 21 18 44 9z m174 -37 c2 -21 -1 -37 -7 -37 -6
0 -11 14 -11 31 0 39 -22 34 -31 -7 l-7 -29 -1 33 c-1 43 -31 45 -31 2 0 -16
-4 -30 -10 -30 -5 0 -10 18 -10 40 l0 40 53 -3 52 -2 3 -38z m29 -19 c-2 -13
-4 -3 -4 22 0 25 2 35 4 23 2 -13 2 -33 0 -45z m79 17 c1 -32 1 -34 -3 -7 -6
42 -33 44 -33 2 0 -16 -4 -30 -10 -30 -5 0 -10 17 -10 39 0 35 2 38 28 37 25
-1 27 -5 28 -41z m82 33 c20 -20 14 -38 -13 -38 -14 0 -25 -5 -25 -11 0 -7 10
-9 28 -4 20 5 24 4 16 -5 -19 -19 -59 -8 -62 18 -6 41 30 66 56 40z m76 6 c26
-10 18 -25 -10 -18 -23 6 -25 4 -22 -17 2 -18 9 -23 26 -22 13 2 21 -1 17 -7
-3 -6 -17 -10 -30 -10 -29 0 -45 41 -25 65 14 17 21 18 44 9z m66 -4 c0 -5 -4
-10 -10 -10 -5 0 -10 -13 -10 -30 0 -16 -4 -30 -10 -30 -5 0 -10 18 -10 40 0
33 3 40 20 40 11 0 20 -4 20 -10z m68 -2 c7 -7 12 -25 12 -41 0 -26 -3 -28
-32 -25 -43 4 -49 32 -11 47 20 8 21 10 6 7 -22 -4 -30 4 -16 17 10 11 28 8
41 -5z m250 -2 c-10 -7 -18 -25 -18 -40 0 -14 -4 -26 -10 -26 -5 0 -10 18 -10
40 0 37 2 40 28 40 24 -1 25 -2 10 -14z m70 5 c8 -5 12 -21 10 -37 -2 -23 -9
-30 -30 -32 -22 -3 -29 2 -34 22 -10 41 21 68 54 47z m128 -36 c1 -32 1 -34
-3 -7 -6 42 -33 44 -33 2 0 -16 -4 -30 -10 -30 -5 0 -10 14 -10 31 0 39 -22
34 -31 -7 -6 -26 -7 -25 -8 12 l-1 41 48 -1 47 -1 1 -40z m214 5 c0 -22 -4
-40 -10 -40 -5 0 -10 18 -10 40 0 22 5 40 10 40 6 0 10 -18 10 -40z m78 -2 c2
-22 -1 -38 -7 -38 -6 0 -11 14 -11 30 0 20 -5 30 -15 30 -10 0 -15 -10 -15
-30 0 -16 -4 -30 -10 -30 -5 0 -10 18 -10 41 0 39 1 40 33 37 29 -3 32 -6 35
-40z m160 33 c8 -5 12 -21 10 -37 -2 -23 -9 -30 -30 -32 -22 -3 -29 2 -34 22
-10 41 21 68 54 47z m42 -17 c0 -8 5 -14 10 -14 6 0 10 9 10 20 0 29 18 25 26
-6 l7 -27 13 29 c14 32 17 22 8 -25 -8 -37 -21 -40 -34 -8 l-9 22 -7 -22 c-9
-32 -20 -29 -33 8 -14 40 -14 52 -1 44 6 -3 10 -13 10 -21z m155 16 c4 -6 -6
-10 -22 -10 l-28 -1 28 -15 c16 -8 26 -21 24 -27 -5 -16 -57 -22 -57 -7 0 7 8
9 20 5 11 -4 20 -2 20 4 0 6 -6 11 -14 11 -19 0 -29 17 -22 35 6 17 42 20 51
5z m11489 -492 c86 -26 166 -136 166 -228 0 -124 -116 -240 -240 -240 -124 0
-240 116 -240 240 0 63 23 114 75 165 70 71 145 90 239 63z m3158 -86 c21 -21
23 -31 23 -142 0 -178 30 -165 -365 -165 -391 0 -364 -11 -368 153 -3 117 6
148 48 169 19 10 98 13 332 11 305 -3 308 -3 330 -26z m-2292 -42 l0 -60 -35
0 c-28 0 -38 5 -46 24 -14 29 3 66 30 66 11 0 21 7 25 15 13 34 26 12 26 -45z
m-500 11 c5 -11 10 -31 10 -45 0 -23 -4 -26 -39 -26 -38 0 -53 12 -44 38 3 6
13 12 23 12 10 0 22 5 26 11 5 9 -1 10 -20 5 -14 -3 -26 -3 -26 2 0 28 55 30
70 3z m208 -28 c4 -49 -15 -59 -20 -11 -4 46 -28 49 -28 4 0 -25 -4 -36 -15
-36 -10 0 -15 11 -15 35 0 19 -4 35 -10 35 -5 0 -10 -16 -10 -35 0 -24 -5 -35
-15 -35 -11 0 -15 11 -15 36 0 45 -24 42 -28 -4 -5 -53 -32 -41 -32 13 l0 46
93 -3 92 -3 3 -42z m92 28 c5 -11 10 -31 10 -45 0 -23 -4 -26 -39 -26 -38 0
-53 12 -44 38 3 6 13 12 23 12 10 0 22 5 26 11 5 9 -1 10 -20 5 -14 -3 -26 -3
-26 2 0 28 55 30 70 3z m98 -28 c2 -34 0 -43 -12 -43 -12 0 -16 10 -16 35 0
19 -4 35 -10 35 -5 0 -10 -16 -10 -35 0 -24 -5 -35 -15 -35 -11 0 -15 12 -15
44 l0 44 38 -1 c36 -2 37 -3 40 -44z m191 33 c7 -8 11 -27 9 -43 -2 -23 -8
-29 -36 -31 -26 -3 -34 1 -41 20 -19 51 35 94 68 54z m2203 -854 c21 -21 23
-31 23 -142 0 -178 30 -165 -365 -165 -391 0 -364 -11 -368 153 -3 117 6 148
48 169 19 10 98 13 332 11 305 -3 308 -3 330 -26z m-2780 1 c22 -20 24 -66 2
-87 -8 -9 -31 -16 -50 -16 l-34 0 0 60 0 60 32 0 c17 0 40 -7 50 -17z m92 -19
c11 -4 16 -19 16 -46 l0 -39 -37 3 c-30 2 -38 7 -38 23 0 13 8 21 23 23 12 2
22 8 22 13 0 5 -12 6 -27 3 -25 -7 -27 -6 -14 9 14 18 29 21 55 11z m86 -3 c0
-5 -7 -11 -15 -15 -9 -3 -15 -18 -15 -36 0 -16 -4 -30 -10 -30 -5 0 -10 20
-10 45 0 41 2 45 25 45 14 0 25 -4 25 -9z m138 -4 c23 -18 13 -37 -18 -37 -16
0 -30 -5 -30 -11 0 -7 11 -9 31 -5 22 4 29 2 27 -7 -3 -6 -19 -13 -36 -15 -26
-3 -34 1 -41 20 -5 13 -6 29 -3 37 3 9 0 12 -9 9 -8 -2 -15 -19 -17 -36 -5
-52 -32 -41 -32 13 l0 44 58 -1 c31 0 63 -5 70 -11z m100 1 c18 -18 16 -78 -3
-78 -10 0 -15 11 -15 35 0 24 -5 35 -15 35 -10 0 -15 -11 -15 -35 0 -24 -5
-35 -15 -35 -11 0 -15 12 -15 45 0 44 1 45 33 45 18 0 38 -5 45 -12z m-851
-28 c35 -13 53 -46 53 -99 0 -57 -25 -83 -88 -89 l-52 -5 0 102 0 101 29 0
c15 0 42 -5 58 -10z m-13958 -40 c41 -21 96 -80 104 -112 4 -15 2 -18 -11 -12
-42 19 -112 16 -154 -6 -31 -16 -50 -20 -77 -15 -20 4 -66 7 -103 6 -38 -1
-68 1 -68 4 0 23 33 76 65 104 28 24 44 32 63 28 14 -3 39 1 56 9 44 19 81 17
125 -6z m375 -78 c19 -54 15 -81 -8 -49 -16 21 -45 22 -52 2 -4 -8 -12 -15
-20 -15 -10 0 -8 14 9 60 26 75 45 75 71 2z m516 -3 l0 -60 -42 3 c-39 3 -43
6 -46 31 -4 33 13 57 39 57 11 0 19 7 19 15 0 8 7 15 15 15 12 0 15 -13 15
-61z m80 47 c0 -8 10 -16 21 -18 29 -4 43 -29 35 -61 -6 -24 -11 -27 -46 -27
l-40 0 0 60 c0 47 3 60 15 60 8 0 15 -6 15 -14z m100 4 c0 -5 -7 -10 -15 -10
-8 0 -15 5 -15 10 0 6 7 10 15 10 8 0 15 -4 15 -10z m238 -50 c16 -46 18 -60
7 -60 -7 0 -15 7 -19 15 -3 8 -14 15 -25 15 -10 0 -21 -7 -25 -15 -3 -8 -11
-15 -17 -15 -12 0 -6 33 16 87 21 50 40 41 63 -27z m52 41 c0 -14 6 -17 24
-14 18 4 27 -1 37 -18 l12 -23 8 22 c6 15 17 22 34 22 16 0 25 6 25 15 0 8 5
15 10 15 6 0 10 -27 10 -60 l0 -60 -35 0 c-28 0 -37 5 -44 22 l-8 22 -12 -22
c-9 -16 -21 -22 -46 -22 l-35 0 0 60 c0 33 4 60 10 60 6 0 10 -8 10 -19z m300
-41 c0 -33 -4 -60 -10 -60 -6 0 -10 27 -10 60 0 33 4 60 10 60 6 0 10 -27 10
-60z m40 0 c0 -33 -4 -60 -10 -60 -6 0 -10 27 -10 60 0 33 4 60 10 60 6 0 10
-27 10 -60z m140 45 c0 -8 9 -15 20 -15 23 0 40 -28 40 -64 0 -39 -28 -33 -32
6 -4 46 -28 49 -28 4 0 -25 -4 -36 -15 -36 -12 0 -15 13 -15 60 0 47 3 60 15
60 8 0 15 -7 15 -15z m-1380 -24 c0 -5 -7 -11 -15 -15 -9 -3 -15 -18 -15 -36
0 -20 -5 -30 -15 -30 -11 0 -15 12 -15 45 0 43 1 45 30 45 17 0 30 -4 30 -9z
m128 -4 c18 -12 16 -77 -3 -77 -11 0 -15 11 -15 36 0 45 -24 42 -28 -4 -4 -42
-20 -41 -24 1 -2 17 -7 32 -13 32 -5 0 -11 -15 -13 -32 -5 -49 -22 -40 -22 11
l0 43 53 -1 c28 0 58 -5 65 -9z m90 1 c7 -7 12 -27 12 -46 0 -32 -1 -33 -37
-30 -30 2 -38 7 -38 23 0 13 8 21 23 23 12 2 22 8 22 13 0 5 -12 6 -27 3 -25
-7 -27 -6 -14 9 16 20 42 22 59 5z m100 0 c18 -18 16 -78 -3 -78 -10 0 -15 11
-15 35 0 24 -5 35 -15 35 -10 0 -15 -11 -15 -35 0 -24 -5 -35 -15 -35 -11 0
-15 12 -15 45 0 44 1 45 33 45 18 0 38 -5 45 -12z m292 -33 c0 -33 -4 -45 -15
-45 -11 0 -15 12 -15 45 0 33 4 45 15 45 11 0 15 -12 15 -45z m88 33 c18 -18
16 -78 -3 -78 -10 0 -15 11 -15 35 0 24 -5 35 -15 35 -10 0 -15 -11 -15 -35 0
-24 -5 -35 -15 -35 -11 0 -15 12 -15 45 0 44 1 45 33 45 18 0 38 -5 45 -12z
m410 -26 c4 -43 22 -41 22 3 0 24 5 35 15 35 11 0 15 -12 15 -46 l0 -45 -37 3
c-37 3 -38 4 -41 47 -2 32 0 42 10 39 7 -3 14 -19 16 -36z m222 19 c5 -11 10
-31 10 -45 0 -23 -4 -26 -39 -26 -38 0 -53 12 -44 38 3 6 13 12 23 12 10 0 22
5 26 11 5 9 -1 10 -20 5 -14 -3 -26 -3 -26 2 0 28 55 30 70 3z m-1753 -85 c4
-7 25 -19 46 -25 43 -14 47 -34 19 -91 -14 -29 -25 -37 -61 -44 -38 -8 -46 -7
-57 10 -32 45 -57 64 -75 59 -13 -4 -19 -1 -19 8 0 9 -5 17 -12 19 -20 7 0 41
21 35 12 -3 28 4 42 19 25 27 83 33 96 10z m-244 -12 c45 -8 47 -23 5 -47 -21
-12 -28 -21 -21 -28 7 -7 17 -7 31 2 24 15 27 13 36 -18 5 -14 3 -23 -3 -23
-13 0 -14 -10 -2 -29 7 -11 13 -10 33 3 14 9 33 14 42 10 9 -3 16 -2 16 4 0 6
-6 12 -12 15 -7 2 -10 8 -6 12 11 11 28 -4 28 -25 0 -11 -9 -24 -20 -30 -32
-17 -23 -30 23 -31 23 -1 53 -4 67 -8 l25 -7 -31 -17 c-143 -75 -324 34 -324
196 0 25 3 27 38 27 20 0 54 -3 75 -6z m1302 -154 c3 -5 1 -10 -4 -10 -6 0
-11 5 -11 10 0 6 2 10 4 10 3 0 8 -4 11 -10z m375 0 c0 -5 -4 -10 -10 -10 -5
0 -10 5 -10 10 0 6 5 10 10 10 6 0 10 -4 10 -10z m-970 -50 c0 -27 -4 -50 -10
-50 -5 0 -10 23 -10 50 0 28 5 50 10 50 6 0 10 -22 10 -50z m520 23 c0 -25 0
-26 20 -8 21 19 28 7 8 -13 -9 -9 -7 -16 7 -32 22 -24 9 -27 -17 -3 -17 15
-18 15 -18 0 0 -10 -4 -17 -10 -17 -5 0 -10 23 -10 50 0 28 5 50 10 50 6 0 10
-12 10 -27z m323 -26 c-4 -19 -1 -32 8 -39 11 -7 10 -8 -6 -6 -23 4 -40 65
-23 86 16 19 28 -5 21 -41z m47 44 c0 -5 9 -11 20 -14 16 -4 20 -13 18 -44 -1
-36 -1 -37 -5 -5 -6 42 -33 44 -33 2 0 -16 -4 -30 -10 -30 -5 0 -10 23 -10 50
0 28 5 50 10 50 6 0 10 -4 10 -9z m482 -29 c-15 -5 -16 -34 0 -50 9 -9 8 -12
-4 -12 -11 0 -17 12 -20 38 -7 52 0 66 20 45 12 -12 13 -18 4 -21z m623 17
c16 -3 20 -13 21 -44 1 -34 1 -35 -3 -7 -6 42 -35 40 -44 -3 -5 -23 -7 -17 -8
25 0 30 3 50 7 44 4 -7 16 -13 27 -15z m-2150 -9 c4 -6 -6 -10 -22 -10 l-28
-1 28 -15 c16 -8 26 -21 24 -27 -5 -16 -57 -22 -57 -7 0 7 8 9 20 5 11 -4 20
-2 20 4 0 6 -6 11 -14 11 -19 0 -29 17 -22 35 6 17 42 20 51 5z m75 -4 c6 -8
10 -25 8 -38 -2 -18 -9 -23 -33 -23 -24 0 -31 5 -33 23 -4 25 13 52 33 52 7 0
18 -7 25 -14z m198 -28 c3 -36 2 -38 -27 -38 -41 0 -43 34 -3 48 l27 10 -28 1
c-17 1 -26 5 -22 12 4 5 17 9 28 7 17 -2 23 -11 25 -40z m118 -3 c1 -32 1 -34
-3 -7 -6 42 -33 44 -33 2 0 -16 -4 -30 -10 -30 -5 0 -10 14 -10 30 0 17 -4 30
-10 30 -5 0 -10 -13 -10 -30 0 -16 -4 -30 -10 -30 -5 0 -10 17 -10 38 l0 39
48 -1 47 -1 1 -40z m166 31 c11 -16 10 -66 -2 -66 -5 0 -10 14 -10 30 0 43
-29 41 -32 -2 l-1 -33 -4 33 c-6 42 -33 44 -33 2 0 -16 -4 -30 -10 -30 -5 0
-10 18 -10 40 l0 40 48 -2 c26 -1 50 -7 54 -12z m76 -28 c3 -36 2 -38 -27 -38
-41 0 -43 34 -3 48 l27 10 -28 1 c-17 1 -26 5 -22 12 4 5 17 9 28 7 17 -2 23
-11 25 -40z m109 -20 c-2 -13 -4 -3 -4 22 0 25 2 35 4 23 2 -13 2 -33 0 -45z
m87 46 c9 -25 7 -64 -4 -64 -5 0 -10 14 -10 30 0 20 -5 30 -15 30 -10 0 -15
-10 -15 -30 0 -16 -4 -30 -10 -30 -5 0 -10 18 -10 40 0 37 2 40 29 40 17 0 31
-6 35 -16z m84 -39 c-3 -44 -6 -50 -27 -53 -13 -2 -28 2 -35 8 -8 10 -5 11 16
6 15 -3 30 -2 33 4 3 5 -2 10 -12 10 -37 0 -56 43 -31 68 6 6 22 11 35 10 22
-2 24 -6 21 -53z m212 15 c0 -22 -4 -40 -10 -40 -5 0 -10 18 -10 40 0 22 5 40
10 40 6 0 10 -18 10 -40z m65 30 c3 -6 -4 -10 -17 -10 -22 -1 -22 -2 5 -16 16
-8 26 -21 24 -27 -5 -16 -47 -21 -61 -7 -8 9 -4 10 17 5 17 -5 27 -3 27 4 0 6
-6 11 -14 11 -19 0 -29 17 -22 35 6 17 32 20 41 5z m125 -5 c18 -22 8 -60 -17
-63 -13 -2 -23 -10 -23 -18 0 -8 -4 -14 -10 -14 -5 0 -10 24 -10 53 0 48 2 53
24 55 13 1 29 -5 36 -13z m78 6 c8 -5 12 -21 10 -37 -2 -23 -9 -30 -30 -32
-22 -3 -29 2 -34 22 -10 41 21 68 54 47z m77 -1 c3 -6 -4 -10 -17 -10 -22 -1
-22 -2 5 -16 16 -8 26 -21 24 -27 -5 -16 -47 -21 -61 -7 -8 9 -4 10 17 5 17
-5 27 -3 27 4 0 6 -6 11 -14 11 -19 0 -29 17 -22 35 6 17 32 20 41 5z m175 -4
c6 -8 10 -25 8 -38 -2 -18 -9 -23 -33 -23 -24 0 -31 5 -33 23 -4 25 13 52 33
52 7 0 18 -7 25 -14z m88 -28 c2 -22 -1 -38 -7 -38 -6 0 -11 14 -11 30 0 20
-5 30 -15 30 -10 0 -15 -10 -15 -30 0 -16 -4 -30 -10 -30 -5 0 -10 18 -10 41
0 39 1 40 33 37 29 -3 32 -6 35 -40z m158 -3 c1 -32 1 -34 -3 -7 -6 42 -33 44
-33 2 0 -16 -4 -30 -10 -30 -5 0 -10 14 -10 31 0 39 -22 34 -31 -7 -6 -26 -7
-25 -8 12 l-1 41 48 -1 47 -1 1 -40z m39 18 l8 -28 10 28 c13 32 32 37 21 5
-18 -59 -36 -88 -52 -88 -14 0 -14 2 -3 9 14 9 12 42 -4 84 -4 9 -3 17 3 17 5
0 13 -12 17 -27z m160 -13 c0 -29 -4 -36 -22 -38 -13 -2 -23 -10 -23 -18 0 -8
-4 -14 -10 -14 -5 0 -10 25 -10 56 l0 55 33 -3 c29 -3 32 -6 32 -38z m165 25
c7 -9 10 -25 6 -41 -5 -20 -12 -25 -34 -22 -28 3 -40 32 -28 64 7 18 40 18 56
-1z m88 -27 c2 -22 -1 -38 -7 -38 -6 0 -11 14 -11 30 0 20 -5 30 -15 30 -10 0
-15 -10 -15 -30 0 -16 -4 -30 -10 -30 -5 0 -10 18 -10 41 0 39 1 40 33 37 29
-3 32 -6 35 -40z m82 23 c15 -29 13 -31 -21 -31 -18 0 -28 -4 -24 -10 4 -6 15
-8 26 -5 11 4 19 2 19 -4 0 -6 -11 -11 -25 -11 -31 0 -50 32 -35 60 14 25 46
26 60 1z m-9996 -1637 c19 -18 23 -153 6 -185 -13 -24 -100 -27 -124 -4 -8 8
-23 15 -34 15 -25 0 -32 18 -32 80 0 60 7 80 29 80 9 0 25 7 35 15 26 20 100
19 120 -1z m226 -88 c0 -52 1 -55 28 -59 22 -3 20 -4 -10 -6 l-38 -1 0 60 c0
33 4 60 10 60 6 0 10 -24 10 -54z m486 30 c9 -9 10 -17 4 -21 -14 -9 -12 -62
3 -69 6 -3 3 -5 -8 -3 -15 2 -21 12 -26 42 -6 37 -3 65 8 65 2 0 11 -6 19 -14z
m-348 -18 c7 -7 12 -22 12 -34 0 -51 -72 -61 -78 -11 -6 47 36 75 66 45z m102
-42 c0 -59 -16 -82 -50 -71 -29 9 -25 27 5 19 15 -4 25 -2 25 5 0 6 -8 11 -18
11 -24 0 -42 19 -42 45 0 29 19 45 52 45 27 0 28 -2 28 -54z m89 40 c7 -8 11
-27 9 -43 -6 -50 -78 -40 -78 11 0 41 45 62 69 32z m53 -23 c2 -21 8 -38 13
-38 6 0 11 17 13 38 5 53 22 46 22 -9 0 -45 0 -45 -32 -42 -31 3 -33 6 -36 46
-2 23 1 42 7 42 5 0 11 -17 13 -37z m7478 -203 l0 -60 -35 0 c-28 0 -38 5 -46
24 -14 29 3 66 30 66 11 0 21 7 25 15 13 34 26 12 26 -45z m-500 11 c5 -11 10
-31 10 -45 0 -23 -4 -26 -39 -26 -38 0 -53 12 -44 38 3 6 13 12 23 12 10 0 22
5 26 11 5 9 -1 10 -20 5 -14 -3 -26 -3 -26 2 0 28 55 30 70 3z m208 -28 c4
-49 -15 -59 -20 -11 -4 46 -28 49 -28 4 0 -25 -4 -36 -15 -36 -10 0 -15 11
-15 35 0 19 -4 35 -10 35 -5 0 -10 -16 -10 -35 0 -24 -5 -35 -15 -35 -11 0
-15 11 -15 36 0 45 -24 42 -28 -4 -5 -53 -32 -41 -32 13 l0 46 93 -3 92 -3 3
-42z m90 -1 l3 -43 -38 3 c-30 2 -38 7 -38 23 0 12 8 21 20 23 11 2 25 9 30
14 7 7 1 9 -17 4 -16 -3 -28 -3 -28 2 0 16 14 23 40 20 22 -3 25 -8 28 -46z
m100 1 c2 -34 0 -43 -12 -43 -12 0 -16 10 -16 35 0 19 -4 35 -10 35 -5 0 -10
-16 -10 -35 0 -24 -5 -35 -15 -35 -11 0 -15 12 -15 44 l0 44 38 -1 c36 -2 37
-3 40 -44z m191 33 c7 -8 11 -27 9 -43 -2 -23 -8 -29 -36 -31 -26 -3 -34 1
-41 20 -19 51 35 94 68 54z"/>
<path d="M290 12796 c0 -19 47 -56 71 -56 25 0 49 10 49 21 0 5 -15 18 -32 29
-39 24 -88 27 -88 6z"/>
<path d="M515 12800 c-12 -4 -27 -15 -35 -25 -12 -14 -12 -18 1 -26 25 -16 59
-10 84 16 14 13 25 29 25 35 0 12 -46 12 -75 0z"/>
<path d="M356 12705 c-3 -9 5 -22 20 -32 l25 -16 -27 -22 c-37 -30 -15 -41 33
-17 37 19 39 19 68 1 17 -11 36 -19 43 -19 22 0 12 27 -15 39 l-27 12 29 23
c42 33 24 49 -25 23 l-40 -22 -39 22 c-33 19 -40 20 -45 8z"/>
<path d="M877 12750 c-4 -15 0 -20 13 -20 13 0 17 5 13 20 -3 11 -9 20 -13 20
-4 0 -10 -9 -13 -20z"/>
<path d="M1640 12724 c0 -28 3 -35 18 -32 11 2 18 14 20 36 3 27 0 32 -17 32
-17 0 -21 -6 -21 -36z"/>
<path d="M23140 12745 c0 -8 5 -15 10 -15 6 0 10 7 10 15 0 8 -4 15 -10 15 -5
0 -10 -7 -10 -15z"/>
<path d="M1350 12700 c0 -5 6 -10 14 -10 8 0 18 5 21 10 3 6 -3 10 -14 10 -12
0 -21 -4 -21 -10z"/>
<path d="M1794 12746 c-9 -23 0 -51 17 -54 19 -4 32 23 24 49 -7 22 -33 25
-41 5z"/>
<path d="M23460 12755 c0 -8 7 -15 15 -15 8 0 15 7 15 15 0 8 -7 15 -15 15 -8
0 -15 -7 -15 -15z"/>
<path d="M23545 12740 c-3 -5 1 -10 9 -10 9 0 16 5 16 10 0 6 -4 10 -9 10 -6
0 -13 -4 -16 -10z"/>
<path d="M23754 12735 c-3 -8 -3 -19 1 -25 11 -18 25 -11 25 15 0 27 -17 34
-26 10z"/>
<path d="M23920 12710 c0 -5 5 -10 10 -10 6 0 10 5 10 10 0 6 -4 10 -10 10 -5
0 -10 -4 -10 -10z"/>
<path d="M24204 12736 c-4 -10 -2 -22 4 -28 8 -8 13 -7 18 6 4 10 2 22 -4 28
-8 8 -13 7 -18 -6z"/>
<path d="M24494 12735 c-7 -17 4 -37 17 -30 12 8 12 45 -1 45 -6 0 -13 -7 -16
-15z"/>
<path d="M24575 12710 c-3 -5 -2 -10 4 -10 5 0 13 5 16 10 3 6 2 10 -4 10 -5
0 -13 -4 -16 -10z"/>
<path d="M24735 12740 c-3 -5 1 -10 9 -10 9 0 16 5 16 10 0 6 -4 10 -9 10 -6
0 -13 -4 -16 -10z"/>
<path d="M22487 11853 c-4 -3 -7 -19 -7 -35 0 -21 5 -28 19 -28 22 0 34 25 26
51 -6 19 -26 25 -38 12z"/>
<path d="M21815 11839 c-9 -27 19 -59 36 -42 15 15 7 57 -13 61 -10 2 -19 -6
-23 -19z"/>
<path d="M21947 11853 c-11 -10 -8 -51 4 -59 18 -10 42 21 34 45 -6 21 -25 28
-38 14z"/>
<path d="M22065 11850 c-4 -6 5 -10 20 -10 15 0 24 4 20 10 -3 6 -12 10 -20
10 -8 0 -17 -4 -20 -10z"/>
<path d="M22365 11850 c-4 -6 5 -10 20 -10 15 0 24 4 20 10 -3 6 -12 10 -20
10 -8 0 -17 -4 -20 -10z"/>
<path d="M22804 11846 c-10 -26 0 -51 21 -51 16 0 20 7 20 30 0 33 -30 49 -41
21z"/>
<path d="M23690 11850 c0 -5 9 -10 20 -10 11 0 20 5 20 10 0 6 -9 10 -20 10
-11 0 -20 -4 -20 -10z"/>
<path d="M7520 11770 c-13 -24 -4 -66 16 -74 16 -6 44 19 44 40 0 24 -19 54
-35 54 -8 0 -19 -9 -25 -20z"/>
<path d="M7977 11784 c-15 -15 -6 -24 24 -24 20 0 29 4 27 13 -5 14 -40 21
-51 11z"/>
<path d="M21622 11060 c0 -14 2 -19 5 -12 2 6 2 18 0 25 -3 6 -5 1 -5 -13z"/>
<path d="M22170 11306 c0 -9 7 -16 16 -16 17 0 14 22 -4 28 -7 2 -12 -3 -12
-12z"/>
<path d="M22170 11255 c0 -8 7 -15 15 -15 8 0 15 7 15 15 0 8 -7 15 -15 15 -8
0 -15 -7 -15 -15z"/>
<path d="M22377 11283 c-13 -12 -7 -43 7 -43 16 0 25 19 18 38 -5 13 -15 16
-25 5z"/>
<path d="M22607 11283 c-13 -12 -7 -43 7 -43 16 0 25 19 18 38 -5 13 -15 16
-25 5z"/>
<path d="M22790 11280 c0 -5 7 -10 16 -10 8 0 12 5 9 10 -3 6 -10 10 -16 10
-5 0 -9 -4 -9 -10z"/>
<path d="M475 10978 c-52 -30 -61 -90 -19 -132 53 -53 144 -16 144 59 0 63
-71 104 -125 73z"/>
<path d="M930 10900 c0 -5 9 -10 20 -10 11 0 20 5 20 10 0 6 -9 10 -20 10 -11
0 -20 -4 -20 -10z"/>
<path d="M1025 10871 c-3 -5 -1 -12 5 -16 12 -7 30 2 30 16 0 12 -27 12 -35 0z"/>
<path d="M8160 10810 c0 -5 5 -10 10 -10 6 0 10 5 10 10 0 6 -4 10 -10 10 -5
0 -10 -4 -10 -10z"/>
<path d="M8660 10796 c0 -17 5 -26 16 -26 10 0 14 7 12 22 -5 32 -28 35 -28 4z"/>
<path d="M8807 10813 c-13 -12 -7 -43 8 -43 9 0 15 9 15 25 0 24 -10 32 -23
18z"/>
<path d="M9096 10815 c-3 -8 -1 -15 4 -15 6 0 10 7 10 15 0 8 -2 15 -4 15 -2
0 -6 -7 -10 -15z"/>
<path d="M9196 10803 c-9 -22 10 -41 25 -26 13 13 5 43 -10 43 -5 0 -12 -8
-15 -17z"/>
<path d="M9293 10804 c-8 -21 13 -42 28 -27 13 13 5 43 -11 43 -6 0 -13 -7
-17 -16z"/>
<path d="M8470 10780 c-13 -8 -12 -10 3 -10 9 0 17 5 17 10 0 12 -1 12 -20 0z"/>
<path d="M9575 10780 c-3 -5 1 -10 9 -10 9 0 16 5 16 10 0 6 -4 10 -9 10 -6 0
-13 -4 -16 -10z"/>
<path d="M8228 10523 c7 -3 16 -2 19 1 4 3 -2 6 -13 5 -11 0 -14 -3 -6 -6z"/>
<path d="M8363 10514 c-7 -18 11 -39 26 -30 17 11 13 46 -4 46 -9 0 -18 -7
-22 -16z"/>
<path d="M8612 10508 c2 -12 10 -23 18 -23 22 0 19 39 -3 43 -15 3 -18 -1 -15
-20z"/>
<path d="M8838 10523 c7 -3 16 -2 19 1 4 3 -2 6 -13 5 -11 0 -14 -3 -6 -6z"/>
<path d="M9298 10523 c7 -3 16 -2 19 1 4 3 -2 6 -13 5 -11 0 -14 -3 -6 -6z"/>
<path d="M22370 10440 c0 -5 7 -10 16 -10 8 0 12 5 9 10 -3 6 -10 10 -16 10
-5 0 -9 -4 -9 -10z"/>
<path d="M22597 10443 c-13 -12 -7 -43 7 -43 16 0 25 19 18 38 -5 13 -15 16
-25 5z"/>
<path d="M22890 10425 c0 -16 6 -25 15 -25 9 0 15 9 15 25 0 16 -6 25 -15 25
-9 0 -15 -9 -15 -25z"/>
<path d="M22995 10410 c-3 -5 -1 -10 4 -10 6 0 11 5 11 10 0 6 -2 10 -4 10 -3
0 -8 -4 -11 -10z"/>
<path d="M23180 10425 c0 -16 6 -25 15 -25 9 0 15 9 15 25 0 16 -6 25 -15 25
-9 0 -15 -9 -15 -25z"/>
<path d="M442 10168 c-24 -24 -14 -69 27 -109 21 -22 46 -39 56 -39 10 0 35
18 57 39 32 33 39 46 36 72 -4 43 -28 57 -70 41 -21 -8 -36 -8 -42 -2 -14 14
-49 13 -64 -2z"/>
<path d="M847 10110 c-3 -12 0 -20 8 -20 8 0 11 8 8 20 -3 11 -7 20 -8 20 -1
0 -5 -9 -8 -20z"/>
<path d="M7680 9588 c0 -9 5 -20 10 -23 13 -8 13 5 0 25 -8 13 -10 13 -10 -2z"/>
<path d="M443 9303 c-16 -6 -17 -65 -1 -81 16 -16 144 -16 154 0 10 16 -27 40
-53 33 -15 -3 -32 4 -55 23 -18 16 -39 27 -45 25z"/>
<path d="M1822 9283 c4 -36 33 -39 33 -3 0 16 -6 26 -18 28 -15 3 -18 -2 -15
-25z"/>
<path d="M1000 9300 c0 -5 9 -10 20 -10 11 0 20 5 20 10 0 6 -9 10 -20 10 -11
0 -20 -4 -20 -10z"/>
<path d="M1095 9271 c-3 -5 -1 -12 5 -16 12 -7 30 2 30 16 0 12 -27 12 -35 0z"/>
<path d="M1245 9300 c-3 -5 3 -10 14 -10 12 0 21 5 21 10 0 6 -6 10 -14 10 -8
0 -18 -4 -21 -10z"/>
<path d="M1635 9300 c-3 -5 3 -10 14 -10 12 0 21 5 21 10 0 6 -6 10 -14 10 -8
0 -18 -4 -21 -10z"/>
<path d="M1735 9269 c-4 -6 -5 -13 -2 -16 7 -7 27 6 27 18 0 12 -17 12 -25 -2z"/>
<path d="M494 8576 c-10 -26 4 -48 28 -44 17 2 23 10 23 28 0 18 -6 26 -23 28
-13 2 -25 -3 -28 -12z"/>
<path d="M946 8494 c-9 -23 19 -53 35 -37 15 15 7 47 -12 51 -9 2 -19 -5 -23
-14z"/>
<path d="M1640 8500 c0 -5 9 -10 20 -10 11 0 20 5 20 10 0 6 -9 10 -20 10 -11
0 -20 -4 -20 -10z"/>
<path d="M480 8466 c-27 -33 39 -62 80 -36 12 7 12 13 4 27 -14 24 -67 29 -84
9z"/>
<path d="M8148 8375 c-10 -21 -9 -29 5 -43 12 -12 17 -13 17 -3 0 8 6 11 15 7
11 -4 15 2 15 23 0 17 -6 31 -16 35 -23 9 -23 8 -36 -19z"/>
<path d="M8140 8090 c0 -15 5 -20 18 -18 9 2 17 10 17 18 0 8 -8 16 -17 18
-13 2 -18 -3 -18 -18z"/>
<path d="M8228 8073 c6 -2 18 -2 25 0 6 3 1 5 -13 5 -14 0 -19 -2 -12 -5z"/>
<path d="M8432 8058 c2 -12 10 -23 18 -23 22 0 19 39 -3 43 -15 3 -18 -1 -15
-20z"/>
<path d="M8590 8040 c0 -5 7 -10 15 -10 8 0 15 5 15 10 0 6 -7 10 -15 10 -8 0
-15 -4 -15 -10z"/>
<path d="M8952 8058 c2 -12 10 -23 18 -23 22 0 19 39 -3 43 -15 3 -18 -1 -15
-20z"/>
<path d="M9198 8068 c-7 -19 2 -38 17 -38 15 0 28 27 19 41 -8 13 -31 11 -36
-3z"/>
<path d="M494 7776 c-10 -26 4 -48 28 -44 17 2 23 10 23 28 0 18 -6 26 -23 28
-13 2 -25 -3 -28 -12z"/>
<path d="M830 7720 c0 -16 5 -21 23 -18 12 2 22 10 22 18 0 8 -10 16 -22 18
-18 3 -23 -2 -23 -18z"/>
<path d="M986 7694 c-9 -23 19 -53 35 -37 15 15 7 47 -12 51 -9 2 -19 -5 -23
-14z"/>
<path d="M1215 7700 c-4 -6 5 -10 20 -10 15 0 24 4 20 10 -3 6 -12 10 -20 10
-8 0 -17 -4 -20 -10z"/>
<path d="M466 7667 c-10 -7 -17 -22 -15 -33 3 -15 14 -20 48 -22 62 -5 91 4
91 28 0 37 -85 55 -124 27z"/>
<path d="M8148 6475 c-10 -21 -9 -29 5 -43 12 -12 17 -13 17 -3 0 8 6 11 15 7
11 -4 15 2 15 23 0 17 -6 31 -16 35 -23 9 -23 8 -36 -19z"/>
<path d="M8218 6168 c-7 -19 2 -38 17 -38 15 0 28 27 19 41 -8 13 -31 11 -36
-3z"/>
<path d="M8488 6173 c7 -3 16 -2 19 1 4 3 -2 6 -13 5 -11 0 -14 -3 -6 -6z"/>
<path d="M8678 6168 c-7 -19 2 -38 17 -38 15 0 28 27 19 41 -8 13 -31 11 -36
-3z"/>
<path d="M8933 6164 c-6 -16 15 -37 29 -28 4 3 8 14 8 25 0 23 -28 26 -37 3z"/>
<path d="M9020 6140 c0 -5 4 -10 9 -10 6 0 13 5 16 10 3 6 -1 10 -9 10 -9 0
-16 -4 -16 -10z"/>
<path d="M9180 6161 c0 -11 4 -22 9 -25 12 -8 34 21 26 34 -11 17 -35 11 -35
-9z"/>
<path d="M9548 6173 c7 -3 16 -2 19 1 4 3 -2 6 -13 5 -11 0 -14 -3 -6 -6z"/>
<path d="M9678 6173 c7 -3 16 -2 19 1 4 3 -2 6 -13 5 -11 0 -14 -3 -6 -6z"/>
<path d="M22616 5632 c-9 -28 3 -52 26 -52 16 0 19 6 16 32 -3 37 -33 51 -42
20z"/>
<path d="M22033 5603 c-20 -8 -15 -23 7 -23 11 0 20 7 20 15 0 15 -6 17 -27 8z"/>
<path d="M21706 5125 c-14 -13 -26 -28 -27 -32 0 -4 -2 -18 -5 -31 -2 -13 3
-33 11 -45 15 -21 15 -21 15 6 0 20 5 27 19 27 11 0 29 12 40 28 20 26 22 26
36 8 8 -10 12 -23 9 -28 -3 -5 3 -12 15 -15 12 -3 21 -9 21 -14 0 -5 5 -9 10
-9 6 0 10 16 10 36 0 27 -7 43 -31 65 -40 37 -86 39 -123 4z"/>
<path d="M22180 5070 c0 -5 5 -10 10 -10 6 0 10 5 10 10 0 6 -4 10 -10 10 -5
0 -10 -4 -10 -10z"/>
<path d="M22680 5056 c0 -17 5 -26 16 -26 10 0 14 7 12 22 -5 32 -28 35 -28 4z"/>
<path d="M22836 5075 c-3 -8 -1 -15 4 -15 6 0 10 7 10 15 0 8 -2 15 -4 15 -2
0 -6 -7 -10 -15z"/>
<path d="M22490 5040 c-13 -8 -12 -10 3 -10 9 0 17 5 17 10 0 12 -1 12 -20 0z"/>
<path d="M8148 4215 c-10 -21 -9 -29 5 -43 12 -12 17 -13 17 -3 0 8 6 11 15 7
11 -4 15 2 15 23 0 17 -6 31 -16 35 -23 9 -23 8 -36 -19z"/>
<path d="M22170 4211 c0 -12 6 -21 16 -21 9 0 14 7 12 17 -5 25 -28 28 -28 4z"/>
<path d="M23077 4193 c-13 -12 -7 -43 8 -43 9 0 15 9 15 25 0 24 -10 32 -23
18z"/>
<path d="M23485 4160 c-3 -5 1 -10 9 -10 9 0 16 5 16 10 0 6 -4 10 -9 10 -6 0
-13 -4 -16 -10z"/>
<path d="M22270 4190 c0 -5 7 -10 16 -10 8 0 12 5 9 10 -3 6 -10 10 -16 10 -5
0 -9 -4 -9 -10z"/>
<path d="M22400 4190 c0 -5 7 -10 15 -10 8 0 15 5 15 10 0 6 -7 10 -15 10 -8
0 -15 -4 -15 -10z"/>
<path d="M22660 4190 c0 -5 7 -10 16 -10 8 0 12 5 9 10 -3 6 -10 10 -16 10 -5
0 -9 -4 -9 -10z"/>
<path d="M22810 4175 c0 -16 6 -25 15 -25 9 0 15 9 15 25 0 16 -6 25 -15 25
-9 0 -15 -9 -15 -25z"/>
<path d="M22910 4176 c0 -17 5 -26 16 -26 10 0 14 7 12 22 -5 32 -28 35 -28 4z"/>
<path d="M23170 4160 c-13 -8 -12 -10 3 -10 9 0 17 5 17 10 0 12 -1 12 -20 0z"/>
<path d="M23348 4188 c-7 -19 2 -38 19 -38 9 0 13 8 11 22 -3 25 -23 35 -30
16z"/>
<path d="M23660 4190 c0 -5 7 -10 15 -10 8 0 15 5 15 10 0 6 -7 10 -15 10 -8
0 -15 -4 -15 -10z"/>
<path d="M10032 3898 c2 -13 10 -23 18 -23 8 0 16 10 18 23 3 17 -2 22 -18 22
-16 0 -21 -5 -18 -22z"/>
<path d="M8248 3913 c7 -3 16 -2 19 1 4 3 -2 6 -13 5 -11 0 -14 -3 -6 -6z"/>
<path d="M8658 3913 c7 -3 16 -2 19 1 4 3 -2 6 -13 5 -11 0 -14 -3 -6 -6z"/>
<path d="M9018 3913 c7 -3 16 -2 19 1 4 3 -2 6 -13 5 -11 0 -14 -3 -6 -6z"/>
<path d="M9220 3880 c0 -5 4 -10 9 -10 6 0 13 5 16 10 3 6 -1 10 -9 10 -9 0
-16 -4 -16 -10z"/>
<path d="M9542 3898 c2 -12 10 -23 18 -23 22 0 19 39 -3 43 -15 3 -18 -1 -15
-20z"/>
<path d="M10122 3898 c2 -12 10 -23 18 -23 22 0 19 39 -3 43 -15 3 -18 -1 -15
-20z"/>
<path d="M21693 3365 c0 -8 4 -12 9 -9 5 3 6 10 3 15 -9 13 -12 11 -12 -6z"/>
<path d="M21794 3370 c2 -16 20 -14 24 2 3 10 2 10 -6 -1 -7 -9 -11 -10 -15
-2 -4 7 -5 8 -3 1z"/>
<path d="M21830 3364 c0 -8 5 -12 10 -9 6 4 8 11 5 16 -9 14 -15 11 -15 -7z"/>
<path d="M21635 3250 c-3 -5 -2 -10 4 -10 5 0 13 5 16 10 3 6 2 10 -4 10 -5 0
-13 -4 -16 -10z"/>
<path d="M21755 3250 c3 -5 8 -10 11 -10 2 0 4 5 4 10 0 6 -5 10 -11 10 -5 0
-7 -4 -4 -10z"/>
<path d="M21740 3221 c0 -6 5 -13 10 -16 6 -3 10 1 10 9 0 9 -4 16 -10 16 -5
0 -10 -4 -10 -9z"/>
<path d="M22657 3313 c-13 -12 -7 -43 7 -43 16 0 25 19 18 38 -5 13 -15 16
-25 5z"/>
<path d="M22165 3280 c-3 -5 1 -10 9 -10 9 0 16 5 16 10 0 6 -4 10 -9 10 -6 0
-13 -4 -16 -10z"/>
<path d="M22465 3280 c-3 -5 1 -10 9 -10 9 0 16 5 16 10 0 6 -4 10 -9 10 -6 0
-13 -4 -16 -10z"/>
<path d="M22753 3304 c-8 -21 13 -42 28 -27 13 13 5 43 -11 43 -6 0 -13 -7
-17 -16z"/>
<path d="M22170 2429 c0 -33 3 -40 18 -37 21 4 29 57 10 69 -23 15 -28 10 -28
-32z"/>
<path d="M22285 2400 c-3 -5 -1 -10 4 -10 6 0 11 5 11 10 0 6 -2 10 -4 10 -3
0 -8 -4 -11 -10z"/>
<path d="M22495 2430 c-3 -5 1 -10 9 -10 9 0 16 5 16 10 0 6 -4 10 -9 10 -6 0
-13 -4 -16 -10z"/>
<path d="M21730 2330 c0 -67 1 -70 23 -70 33 0 57 30 57 72 0 39 -24 68 -58
68 -21 0 -22 -5 -22 -70z"/>
<path d="M8160 2300 c0 -5 5 -10 10 -10 6 0 10 5 10 10 0 6 -4 10 -10 10 -5 0
-10 -4 -10 -10z"/>
<path d="M8660 2286 c0 -17 5 -26 16 -26 10 0 14 7 12 22 -5 32 -28 35 -28 4z"/>
<path d="M8807 2303 c-13 -12 -7 -43 8 -43 9 0 15 9 15 25 0 24 -10 32 -23 18z"/>
<path d="M9096 2305 c-3 -8 -1 -15 4 -15 6 0 10 7 10 15 0 8 -2 15 -4 15 -2 0
-6 -7 -10 -15z"/>
<path d="M9196 2293 c-9 -22 10 -41 25 -26 13 13 5 43 -10 43 -5 0 -12 -8 -15
-17z"/>
<path d="M9293 2294 c-8 -21 13 -42 28 -27 13 13 5 43 -11 43 -6 0 -13 -7 -17
-16z"/>
<path d="M8470 2270 c-13 -8 -12 -10 3 -10 9 0 17 5 17 10 0 12 -1 12 -20 0z"/>
<path d="M9575 2270 c-3 -5 1 -10 9 -10 9 0 16 5 16 10 0 6 -4 10 -9 10 -6 0
-13 -4 -16 -10z"/>
<path d="M8208 2008 c-7 -19 2 -38 17 -38 15 0 28 27 19 41 -8 13 -31 11 -36
-3z"/>
<path d="M8410 1980 c0 -5 4 -10 9 -10 6 0 13 5 16 10 3 6 -1 10 -9 10 -9 0
-16 -4 -16 -10z"/>
<path d="M8770 1980 c0 -5 4 -10 9 -10 6 0 13 5 16 10 3 6 -1 10 -9 10 -9 0
-16 -4 -16 -10z"/>
<path d="M9040 2001 c0 -11 4 -22 9 -25 12 -8 34 21 26 34 -11 17 -35 11 -35
-9z"/>
<path d="M9450 1995 c0 -16 6 -25 15 -25 9 0 15 9 15 25 0 16 -6 25 -15 25 -9
0 -15 -9 -15 -25z"/>
<path d="M9532 1998 c2 -12 10 -23 18 -23 22 0 19 39 -3 43 -15 3 -18 -1 -15
-20z"/>
<path d="M9778 2008 c-7 -19 2 -38 17 -38 15 0 28 27 19 41 -8 13 -31 11 -36
-3z"/>
<path d="M10222 1998 c2 -12 10 -23 18 -23 22 0 19 39 -3 43 -15 3 -18 -1 -15
-20z"/>
<path d="M10383 2004 c-7 -18 11 -39 26 -30 17 11 13 46 -4 46 -9 0 -18 -7
-22 -16z"/>
<path d="M10558 2013 c6 -2 18 -2 25 0 6 3 1 5 -13 5 -14 0 -19 -2 -12 -5z"/>
<path d="M490 361 c0 -12 -4 -21 -10 -21 -5 0 -10 4 -10 10 0 5 -7 7 -15 4
-11 -5 -15 -22 -15 -64 0 -62 15 -86 33 -54 10 18 11 17 17 -6 5 -22 12 -25
58 -28 l53 -3 -3 88 -3 88 -52 3 c-48 3 -53 1 -53 -17z m0 -51 c0 -5 16 -10
36 -10 21 0 33 -4 29 -10 -3 -5 -19 -10 -35 -10 -16 0 -32 -5 -36 -12 -5 -8
-11 -5 -20 7 -10 14 -11 22 -3 32 13 15 29 17 29 3z"/>
<path d="M917 286 c-7 -19 17 -51 31 -42 20 12 15 56 -7 56 -10 0 -21 -6 -24
-14z"/>
<path d="M1017 293 c-15 -15 -7 -43 13 -43 15 0 20 7 20 25 0 24 -18 34 -33
18z"/>
<path d="M1112 273 c2 -17 9 -28 18 -28 9 0 16 11 18 28 3 22 -1 27 -18 27
-17 0 -21 -5 -18 -27z"/>
<path d="M8637 83 c-13 -12 -7 -43 7 -43 16 0 25 19 18 38 -5 13 -15 16 -25 5z"/>
<path d="M8145 50 c-3 -5 1 -10 9 -10 9 0 16 5 16 10 0 6 -4 10 -9 10 -6 0
-13 -4 -16 -10z"/>
<path d="M8445 50 c-3 -5 1 -10 9 -10 9 0 16 5 16 10 0 6 -4 10 -9 10 -6 0
-13 -4 -16 -10z"/>
<path d="M8733 74 c-8 -21 13 -42 28 -27 13 13 5 43 -11 43 -6 0 -13 -7 -17
-16z"/>
<path d="M7820 120 c0 -5 5 -10 11 -10 5 0 7 5 4 10 -3 6 -8 10 -11 10 -2 0
-4 -4 -4 -10z"/>
<path d="M7608 3 c7 -3 16 -2 19 1 4 3 -2 6 -13 5 -11 0 -14 -3 -6 -6z"/>
<path d="M7718 3 c7 -3 16 -2 19 1 4 3 -2 6 -13 5 -11 0 -14 -3 -6 -6z"/>
</g>
</svg>
